<svg width="23" height="23" viewBox="0 0 23 23" fill="none" xmlns="http://www.w3.org/2000/svg">
<path d="M19.012 0H3.39391C1.5225 0 0 1.5225 0 3.39334V19.012C0 20.8834 1.5225 22.4053 3.39391 22.4053H19.012C20.8834 22.4053 22.4059 20.8828 22.4059 19.012V3.39391C22.4059 1.5225 20.8834 0 19.012 0ZM20.5934 19.012C20.5934 19.8837 19.8843 20.5928 19.012 20.5928H3.39391C2.52221 20.5928 1.8125 19.8837 1.8125 19.012V3.39391C1.8125 2.52221 2.52164 1.81307 3.39391 1.81307H19.012C19.8837 1.81307 20.5934 2.52221 20.5934 3.39391V19.012Z" fill="black"/>
<path d="M16.7561 10.2967H12.1093V5.6499C12.1093 5.1492 11.7037 4.74365 11.203 4.74365C10.7023 4.74365 10.2968 5.1492 10.2968 5.6499V10.2967H5.64998C5.14928 10.2967 4.74373 10.7022 4.74373 11.2029C4.74373 11.7037 5.14928 12.1092 5.64998 12.1092H10.2968V16.756C10.2968 17.2567 10.7023 17.6622 11.203 17.6622C11.7037 17.6622 12.1093 17.2567 12.1093 16.756V12.1092H16.7561C17.2568 12.1092 17.6623 11.7037 17.6623 11.2029C17.6623 10.7022 17.2568 10.2967 16.7561 10.2967Z" fill="black"/>
</svg>
