<svg width="25" height="25" viewBox="0 0 25 25" fill="none" xmlns="http://www.w3.org/2000/svg">
<path d="M1.625 8.875V21.4417C1.625 22.1185 1.625 22.4565 1.7567 22.715C1.87255 22.9424 2.05727 23.1275 2.28463 23.2434C2.54285 23.375 2.88106 23.375 3.55647 23.375H16.1251M18.5417 7.66667L13.7083 12.5L11.2917 10.0833M6.45833 14.6752V5.49191C6.45833 4.13844 6.45833 3.46121 6.72174 2.94426C6.95342 2.48953 7.32286 2.12009 7.77759 1.8884C8.29454 1.625 8.97178 1.625 10.3252 1.625H19.5086C20.862 1.625 21.5385 1.625 22.0554 1.8884C22.5101 2.12009 22.8802 2.48953 23.1118 2.94426C23.3752 3.46121 23.3752 4.13796 23.3752 5.4914V14.6748C23.3752 16.0282 23.3752 16.705 23.1118 17.2219C22.8802 17.6766 22.5101 18.0469 22.0554 18.2785C21.5389 18.5417 20.8635 18.5417 19.5127 18.5417H10.3213C8.97045 18.5417 8.29403 18.5417 7.77759 18.2785C7.32286 18.0469 6.95342 17.6767 6.72174 17.222C6.45833 16.7051 6.45833 16.0287 6.45833 14.6752Z" stroke="white" stroke-width="2.41667" stroke-linecap="round" stroke-linejoin="round"/>
</svg>
