<!DOCTYPE svg PUBLIC "-//W3C//DTD SVG 1.1//EN" "http://www.w3.org/Graphics/SVG/1.1/DTD/svg11.dtd">
<!-- Uploaded to: SVG Repo, www.svgrepo.com, Transformed by: SVG Repo Mixer Tools -->
<svg fill="#ffffff" height="64px" width="64px" version="1.1" id="Layer_1" xmlns="http://www.w3.org/2000/svg" xmlns:xlink="http://www.w3.org/1999/xlink" viewBox="0 0 512 512" xml:space="preserve" stroke="#ffffff">
<g id="SVGRepo_bgCarrier" stroke-width="0"/>
<g id="SVGRepo_tracerCarrier" stroke-linecap="round" stroke-linejoin="round"/>
<g id="SVGRepo_iconCarrier"> <g> <g> <path d="M256,0C114.509,0,0,114.497,0,256c0,141.491,114.497,256,256,256c141.491,0,256-114.497,256-256 C512,114.509,397.503,0,256,0z M368.32,305.16c17.441,17.441,17.441,45.718,0,63.159c-17.441,17.441-45.718,17.442-63.159,0 l-49.16-49.16l-49.16,49.16c-17.441,17.441-45.718,17.442-63.159,0c-17.441-17.441-17.441-45.718,0-63.159l49.16-49.16 l-49.16-49.16c-17.441-17.441-17.441-45.718,0-63.159c17.441-17.441,45.718-17.441,63.159,0l49.16,49.16l49.16-49.16 c17.441-17.441,45.718-17.441,63.159,0c17.441,17.441,17.441,45.718,0,63.159L319.16,256L368.32,305.16z"/> </g> </g> </g>
</svg>