<svg width="25" height="25" viewBox="0 0 25 25" fill="none" xmlns="http://www.w3.org/2000/svg">
<path d="M3.12508 5.91197V3.12508C3.12508 2.54979 2.65871 2.08341 2.08341 2.08341C1.50812 2.08341 1.04175 2.54979 1.04175 3.12508V7.29175C1.04175 8.44234 1.97449 9.37508 3.12508 9.37508H7.29175C7.86705 9.37508 8.33342 8.90872 8.33342 8.33341C8.33342 7.75812 7.86705 7.29175 7.29175 7.29175H4.71035C4.73152 7.26576 4.75172 7.23877 4.77086 7.2108C5.85529 5.62606 7.40643 4.4054 9.22082 3.7272C11.362 2.92683 13.722 2.93716 15.856 3.75623C17.9901 4.57529 19.7509 6.14655 20.8069 8.17393C21.8627 10.2013 22.1406 12.5449 21.5883 14.763C21.036 16.9811 19.6916 18.9207 17.8083 20.2162C15.9251 21.5119 13.633 22.0739 11.364 21.7966C9.09507 21.5195 7.00582 20.422 5.48996 18.711C4.20543 17.2611 3.40778 15.4557 3.19307 13.5475C3.12875 12.9757 2.66335 12.5083 2.08806 12.5088C1.51276 12.5092 1.03724 12.9771 1.08994 13.5499C1.31252 15.9698 2.30029 18.2663 3.92369 20.0986C5.77824 22.1919 8.33429 23.5346 11.1102 23.8738C13.8861 24.213 16.6903 23.5253 18.9944 21.9403C21.2984 20.3553 22.9432 17.9824 23.6189 15.2686C24.2947 12.5549 23.9546 9.68772 22.6628 7.20734C21.371 4.72698 19.2167 2.80465 16.6058 1.80259C13.995 0.800517 11.1077 0.787884 8.48813 1.76707C6.31323 2.58004 4.44751 4.03009 3.12508 5.91197Z" fill="white"/>
<path d="M12.5002 5.2085C11.9249 5.2085 11.4585 5.67486 11.4585 6.25016V12.9863C11.4585 12.9863 11.4585 13.2579 11.5905 13.4621C11.6788 13.6354 11.8165 13.786 11.9975 13.8904L16.8097 16.6688C17.308 16.9564 17.9451 16.7857 18.2327 16.2875C18.5203 15.7892 18.3496 15.1522 17.8514 14.8645L13.5418 12.3764V6.25016C13.5418 5.67487 13.0755 5.2085 12.5002 5.2085Z" fill="white"/>
</svg>
