<svg width="27" height="27" viewBox="0 0 27 27" fill="none" xmlns="http://www.w3.org/2000/svg">
<path d="M23.931 12.4451L14.0103 2.5243C13.9078 2.42098 13.7859 2.33898 13.6516 2.28302C13.5173 2.22705 13.3732 2.19824 13.2277 2.19824C13.0821 2.19824 12.9381 2.22705 12.8037 2.28302C12.6694 2.33898 12.5475 2.42098 12.445 2.5243L2.52427 12.4451C2.37132 12.6001 2.26771 12.7969 2.22651 13.0107C2.18531 13.2246 2.20838 13.4458 2.29279 13.6466C2.37548 13.8479 2.51592 14.0202 2.69639 14.1418C2.87686 14.2634 3.08929 14.3289 3.30691 14.33H4.40922V22.3768C4.42931 22.8924 4.65285 23.3791 5.0309 23.7303C5.40896 24.0815 5.91074 24.2686 6.42643 24.2507H9.36959C9.66194 24.2507 9.94232 24.1346 10.149 23.9279C10.3558 23.7212 10.4719 23.4408 10.4719 23.1484V17.7471C10.4719 17.4548 10.588 17.1744 10.7948 16.9677C11.0015 16.761 11.2819 16.6448 11.5742 16.6448H14.8811C15.1735 16.6448 15.4538 16.761 15.6606 16.9677C15.8673 17.1744 15.9834 17.4548 15.9834 17.7471V23.1484C15.9834 23.4408 16.0996 23.7212 16.3063 23.9279C16.513 24.1346 16.7934 24.2507 17.0857 24.2507H20.0289C20.5446 24.2686 21.0464 24.0815 21.4244 23.7303C21.8025 23.3791 22.026 22.8924 22.0461 22.3768V14.33H23.1484C23.366 14.3289 23.5785 14.2634 23.7589 14.1418C23.9394 14.0202 24.0798 13.8479 24.1625 13.6466C24.2469 13.4458 24.27 13.2246 24.2288 13.0107C24.1876 12.7969 24.084 12.6001 23.931 12.4451Z" fill="white"/>
</svg>
