<svg width="23" height="23" viewBox="0 0 23 23" fill="none" xmlns="http://www.w3.org/2000/svg">
<g clip-path="url(#clip0_4_375)">
<path d="M3.58247 0.716553C3.39244 0.716572 3.21021 0.792066 3.07585 0.926431C2.94148 1.0608 2.86599 1.24303 2.86597 1.43305V21.495C2.86599 21.685 2.94148 21.8673 3.07585 22.0016C3.21021 22.136 3.39244 22.2115 3.58247 22.2115H19.3454C19.5355 22.2115 19.7177 22.136 19.8521 22.0016C19.9864 21.8673 20.0619 21.685 20.0619 21.495V7.16644H14.3285C14.1385 7.16568 13.9566 7.08947 13.8227 6.95458C13.6889 6.81969 13.6141 6.63716 13.6148 6.44714V0.716553H3.58247ZM15.0478 1.13778V5.73344H19.6435L15.0478 1.13778ZM7.81149 8.59944C7.83433 8.59834 7.85721 8.59834 7.88006 8.59944H15.0478C15.2381 8.59944 15.4205 8.675 15.555 8.8095C15.6895 8.944 15.765 9.12642 15.765 9.31663C15.765 9.50685 15.6895 9.68927 15.555 9.82377C15.4205 9.95827 15.2381 10.0338 15.0478 10.0338H7.88006C7.68984 10.0429 7.50381 9.97608 7.36288 9.84801C7.22195 9.71994 7.13767 9.54113 7.12857 9.35092C7.11948 9.16071 7.18632 8.97467 7.31439 8.83374C7.44246 8.69281 7.62127 8.60853 7.81149 8.59944ZM7.85067 12.8942C7.86046 12.894 7.87026 12.894 7.88006 12.8942H15.0478C15.2381 12.8942 15.4205 12.9698 15.555 13.1043C15.6895 13.2388 15.765 13.4212 15.765 13.6114C15.765 13.8016 15.6895 13.9841 15.555 14.1186C15.4205 14.2531 15.2381 14.3286 15.0478 14.3286H7.88006C7.68984 14.3325 7.50587 14.2607 7.36862 14.129C7.23136 13.9972 7.15206 13.8163 7.14816 13.6261C7.14427 13.4359 7.21609 13.2519 7.34784 13.1147C7.47958 12.9774 7.66046 12.8981 7.85067 12.8942ZM7.88006 17.1946H15.0478C15.1433 17.1925 15.2382 17.2094 15.327 17.2445C15.4158 17.2795 15.4967 17.3319 15.565 17.3987C15.6332 17.4654 15.6875 17.5451 15.7245 17.6331C15.7615 17.7211 15.7806 17.8156 15.7806 17.9111C15.7806 18.0066 15.7615 18.1011 15.7245 18.1891C15.6875 18.2771 15.6332 18.3568 15.565 18.4235C15.4967 18.4903 15.4158 18.5427 15.327 18.5778C15.2382 18.6128 15.1433 18.6298 15.0478 18.6276H7.88006C7.78461 18.6298 7.6897 18.6128 7.60089 18.5778C7.51209 18.5427 7.43118 18.4903 7.36292 18.4235C7.29466 18.3568 7.24042 18.2771 7.20339 18.1891C7.16637 18.1011 7.14729 18.0066 7.14729 17.9111C7.14729 17.8156 7.16637 17.7211 7.20339 17.6331C7.24042 17.5451 7.29466 17.4654 7.36292 17.3987C7.43118 17.3319 7.51209 17.2795 7.60089 17.2445C7.6897 17.2094 7.78461 17.1925 7.88006 17.1946Z" fill="white"/>
</g>
<defs>
<clipPath id="clip0_4_375">
<rect width="22.928" height="22.928" fill="white"/>
</clipPath>
</defs>
</svg>
