<svg width="23" height="23" viewBox="0 0 23 23" fill="none" xmlns="http://www.w3.org/2000/svg">
<g clip-path="url(#clip0_8_1075)">
<path d="M22.5183 12.4276L10.5729 0.482243C10.1933 0.10198 9.65181 -0.067757 9.12154 0.0256641L2.53075 1.19935C1.85181 1.3204 1.32023 1.85198 1.19917 2.53093L0.0261479 9.12172C-0.0679311 9.65132 0.102464 10.1928 0.482727 10.573L12.4275 22.5178C12.7485 22.8382 13.1696 22.9987 13.5906 22.9987C14.013 22.9987 14.4327 22.8382 14.7551 22.5178L22.5202 14.752C23.161 14.1105 23.161 13.0691 22.5183 12.4276ZM6.20181 6.2204C5.54391 6.86843 4.48536 6.86053 3.83733 6.2033C3.18931 5.5454 3.19654 4.48685 3.85444 3.83816C4.51233 3.19014 5.57088 3.19803 6.21957 3.85593C6.8676 4.51251 6.85904 5.57106 6.20181 6.2204Z" fill="white" stroke="white" stroke-width="0.657895"/>
</g>
<defs>
<clipPath id="clip0_8_1075">
<rect width="23" height="23" fill="white"/>
</clipPath>
</defs>
</svg>
