<svg width="64" height="64" viewBox="0 0 64 64" fill="none" xmlns="http://www.w3.org/2000/svg">
<g clip-path="url(#clip0_8_1081)">
<path fill-rule="evenodd" clip-rule="evenodd" d="M48 4C56.8366 4 64 11.1634 64 20V44C64 52.8366 56.8366 60 48 60H16C7.16344 60 0 52.8366 0 44V20C0 11.1634 7.16344 4 16 4H48ZM55.9328 24.0341C55.1465 23.2584 53.8802 23.2669 53.1044 24.0532L36.9747 40.402L22.3553 25.7826L22.1421 25.5878C20.8265 24.491 18.8778 24.6863 17.6513 25.9128L7.34047 36.2236L7.18506 36.3981C6.56341 37.1831 6.61521 38.3268 7.34047 39.052L7.51491 39.2075C8.29995 39.8291 9.44364 39.7773 10.1689 39.052L20.0694 29.1513L39.8674 48.9515L40.0418 49.1069C40.8269 49.7286 41.9705 49.6768 42.6958 48.9515C43.4769 48.1705 43.4769 46.9042 42.6958 46.1231L39.8027 43.23L55.9519 26.8625L56.1061 26.687C56.7224 25.8978 56.6629 24.7545 55.9328 24.0341ZM37.2 14C32.7817 14 29.2 17.5817 29.2 22C29.2 26.4183 32.7817 30 37.2 30C41.6183 30 45.2 26.4183 45.2 22C45.2 17.5817 41.6183 14 37.2 14ZM37.2 18C39.4091 18 41.2 19.7909 41.2 22C41.2 24.2091 39.4091 26 37.2 26C34.9909 26 33.2 24.2091 33.2 22C33.2 19.7909 34.9909 18 37.2 18Z" fill="#9D9C9C"/>
</g>
<defs>
<clipPath id="clip0_8_1081">
<rect width="64" height="64" fill="white"/>
</clipPath>
</defs>
</svg>
