<svg width="27" height="27" viewBox="0 0 27 27" fill="none" xmlns="http://www.w3.org/2000/svg">
<path d="M24.2827 22.8937L4.10458 2.71552C3.48623 2.09723 2.42493 2.53556 2.42493 3.41228V5.11491H4.03992C4.22348 5.11491 4.39953 5.18783 4.52933 5.31764C4.65913 5.44744 4.73206 5.62348 4.73206 5.80705C4.73206 5.99062 4.65913 6.16667 4.52933 6.29647C4.39953 6.42627 4.22348 6.49919 4.03992 6.49919H2.42493V7.66661H3.34778C3.53134 7.66661 3.70739 7.73953 3.83719 7.86933C3.967 7.99913 4.03992 8.17518 4.03992 8.35875C4.03992 8.54231 3.967 8.71836 3.83719 8.84816C3.70739 8.97796 3.53134 9.05088 3.34778 9.05088H2.42493V10.2183H3.34778C3.53134 10.2183 3.70739 10.2912 3.83719 10.421C3.967 10.5508 4.03992 10.7269 4.03992 10.9104C4.03992 11.094 3.967 11.2701 3.83719 11.3999C3.70739 11.5297 3.53134 11.6026 3.34778 11.6026H2.42493V12.77H4.03992C4.22348 12.77 4.39953 12.8429 4.52933 12.9727C4.65913 13.1025 4.73206 13.2786 4.73206 13.4621C4.73206 13.6457 4.65913 13.8218 4.52933 13.9516C4.39953 14.0814 4.22348 14.1543 4.03992 14.1543H2.42493V15.3171H3.34778C3.53134 15.3171 3.70739 15.39 3.83719 15.5198C3.967 15.6496 4.03992 15.8256 4.03992 16.0092C4.03992 16.1928 3.967 16.3688 3.83719 16.4986C3.70739 16.6284 3.53134 16.7014 3.34778 16.7014H2.42493V17.8688H3.34778C3.53134 17.8688 3.70739 17.9417 3.83719 18.0715C3.967 18.2013 4.03992 18.3774 4.03992 18.5609C4.03992 18.7445 3.967 18.9206 3.83719 19.0504C3.70739 19.1802 3.53134 19.2531 3.34778 19.2531H2.42493V20.4204H4.03992C4.22348 20.4204 4.39953 20.4934 4.52933 20.6232C4.65913 20.753 4.73206 20.929 4.73206 21.1126C4.73206 21.2962 4.65913 21.4722 4.52933 21.602C4.39953 21.7318 4.22348 21.8047 4.03992 21.8047H2.42493V23.5904C2.42515 23.851 2.52878 24.1009 2.71306 24.2852C2.89735 24.4695 3.14722 24.5731 3.40782 24.5733H5.19348V22.9583C5.19348 22.7747 5.2664 22.5987 5.3962 22.4689C5.52601 22.3391 5.70205 22.2662 5.88562 22.2662C6.06919 22.2662 6.24523 22.3391 6.37504 22.4689C6.50484 22.5987 6.57776 22.7747 6.57776 22.9583V24.5733H7.74518V23.6504C7.74518 23.4669 7.8181 23.2908 7.9479 23.161C8.07771 23.0312 8.25375 22.9583 8.43732 22.9583C8.62089 22.9583 8.79694 23.0312 8.92674 23.161C9.05654 23.2908 9.12946 23.4669 9.12946 23.6504V24.5733H10.2969V23.6504C10.2969 23.4669 10.3698 23.2908 10.4996 23.161C10.6294 23.0312 10.8055 22.9583 10.989 22.9583C11.1726 22.9583 11.3486 23.0312 11.4784 23.161C11.6082 23.2908 11.6812 23.4669 11.6812 23.6504V24.5733H12.8486V22.9583C12.8486 22.7747 12.9215 22.5987 13.0513 22.4689C13.1811 22.3391 13.3571 22.2662 13.5407 22.2662C13.7243 22.2662 13.9003 22.3391 14.0301 22.4689C14.1599 22.5987 14.2329 22.7747 14.2329 22.9583V24.5733H15.4003V23.6504C15.4003 23.4669 15.4732 23.2908 15.603 23.161C15.7328 23.0312 15.9089 22.9583 16.0924 22.9583C16.276 22.9583 16.452 23.0312 16.5818 23.161C16.7116 23.2908 16.7846 23.4669 16.7846 23.6504V24.5733H17.9473V23.6504C17.9473 23.4669 18.0203 23.2908 18.1501 23.161C18.2799 23.0312 18.4559 22.9583 18.6395 22.9583C18.8231 22.9583 18.9991 23.0312 19.1289 23.161C19.2587 23.2908 19.3316 23.4669 19.3316 23.6504V24.5733H20.499V22.9583C20.499 22.7747 20.572 22.5987 20.7018 22.4689C20.8316 22.3391 21.0076 22.2662 21.1912 22.2662C21.3748 22.2662 21.5508 22.3391 21.6806 22.4689C21.8104 22.5987 21.8833 22.7747 21.8833 22.9583V24.5733H23.5906C24.4672 24.5733 24.9057 23.5167 24.2827 22.8937ZM7.96204 19.0361V13.0192L13.979 19.0361L7.96204 19.0361Z" fill="white" stroke="white" stroke-width="0.125"/>
</svg>
