<svg width="27" height="27" viewBox="0 0 27 27" fill="none" xmlns="http://www.w3.org/2000/svg">
<path fill-rule="evenodd" clip-rule="evenodd" d="M5.625 9C5.625 9.29837 5.50647 9.58452 5.29549 9.79549C5.08452 10.0065 4.79837 10.125 4.5 10.125C4.20163 10.125 3.91548 10.0065 3.7045 9.79549C3.49353 9.58452 3.375 9.29837 3.375 9V6.66337C3.375 5.80837 3.46725 5.33025 3.73387 4.833C3.98475 4.36163 4.36162 3.98475 4.833 3.73388C5.33025 3.46725 5.80725 3.375 6.66337 3.375H9C9.29837 3.375 9.58452 3.49353 9.79549 3.7045C10.0065 3.91548 10.125 4.20163 10.125 4.5C10.125 4.79837 10.0065 5.08452 9.79549 5.29549C9.58452 5.50647 9.29837 5.625 9 5.625H6.66337C6.147 5.625 6.02212 5.64975 5.89387 5.71725C5.81804 5.75629 5.75629 5.81804 5.71725 5.89387C5.64975 6.021 5.625 6.147 5.625 6.66337V9ZM9 21.375C9.29837 21.375 9.58452 21.4935 9.79549 21.7045C10.0065 21.9155 10.125 22.2016 10.125 22.5C10.125 22.7984 10.0065 23.0845 9.79549 23.2955C9.58452 23.5065 9.29837 23.625 9 23.625H6.66337C5.80837 23.625 5.33025 23.5327 4.833 23.2661C4.3653 23.0174 3.98256 22.6347 3.73387 22.167C3.46725 21.6698 3.375 21.1927 3.375 20.3366V18C3.375 17.7016 3.49353 17.4155 3.7045 17.2045C3.91548 16.9935 4.20163 16.875 4.5 16.875C4.79837 16.875 5.08452 16.9935 5.29549 17.2045C5.50647 17.4155 5.625 17.7016 5.625 18V20.3366C5.625 20.853 5.64975 20.9779 5.71725 21.1061C5.76 21.1849 5.81512 21.2411 5.89387 21.2827C6.021 21.3502 6.147 21.375 6.66337 21.375H9ZM16.875 4.5C16.875 4.79837 16.9935 5.08452 17.2045 5.29549C17.4155 5.50647 17.7016 5.625 18 5.625H20.3366C20.853 5.625 20.9779 5.64975 21.1061 5.71725C21.1849 5.76 21.2411 5.81512 21.2827 5.89387C21.3502 6.021 21.375 6.147 21.375 6.66337V9C21.375 9.29837 21.4935 9.58452 21.7045 9.79549C21.9155 10.0065 22.2016 10.125 22.5 10.125C22.7984 10.125 23.0845 10.0065 23.2955 9.79549C23.5065 9.58452 23.625 9.29837 23.625 9V6.66337C23.625 5.80837 23.5327 5.33025 23.2661 4.833C23.0174 4.3653 22.6347 3.98256 22.167 3.73388C21.6697 3.46725 21.1927 3.375 20.3366 3.375H18C17.7016 3.375 17.4155 3.49353 17.2045 3.7045C16.9935 3.91548 16.875 4.20163 16.875 4.5ZM21.375 18C21.375 17.7016 21.4935 17.4155 21.7045 17.2045C21.9155 16.9935 22.2016 16.875 22.5 16.875C22.7984 16.875 23.0845 16.9935 23.2955 17.2045C23.5065 17.4155 23.625 17.7016 23.625 18V20.3366C23.625 21.1916 23.5327 21.6698 23.2661 22.167C23.0174 22.6347 22.6347 23.0174 22.167 23.2661C21.6697 23.5327 21.1927 23.625 20.3366 23.625H18C17.7016 23.625 17.4155 23.5065 17.2045 23.2955C16.9935 23.0845 16.875 22.7984 16.875 22.5C16.875 22.2016 16.9935 21.9155 17.2045 21.7045C17.4155 21.4935 17.7016 21.375 18 21.375H20.3366C20.853 21.375 20.9779 21.3502 21.1061 21.2827C21.182 21.2438 21.2438 21.182 21.2827 21.1061C21.3502 20.979 21.375 20.853 21.375 20.3366V18ZM3.375 12.375C3.07663 12.375 2.79048 12.4935 2.5795 12.7045C2.36853 12.9155 2.25 13.2016 2.25 13.5C2.25 13.7984 2.36853 14.0845 2.5795 14.2955C2.79048 14.5065 3.07663 14.625 3.375 14.625H23.625C23.9234 14.625 24.2095 14.5065 24.4205 14.2955C24.6315 14.0845 24.75 13.7984 24.75 13.5C24.75 13.2016 24.6315 12.9155 24.4205 12.7045C24.2095 12.4935 23.9234 12.375 23.625 12.375H3.375Z" fill="white"/>
</svg>
