<svg width="26" height="26" viewBox="0 0 26 26" fill="none" xmlns="http://www.w3.org/2000/svg">
<path d="M20.2456 4.26223H19.18V3.19667C19.18 2.55733 18.7538 2.1311 18.1145 2.1311C17.4751 2.1311 17.0489 2.55733 17.0489 3.19667V4.26223H8.52441V3.19667C8.52441 2.55733 8.09819 2.1311 7.45885 2.1311C6.81952 2.1311 6.39329 2.55733 6.39329 3.19667V4.26223H5.32773C3.51627 4.26223 2.13104 5.64746 2.13104 7.45891V8.52448H23.4423V7.45891C23.4423 5.64746 22.0571 4.26223 20.2456 4.26223ZM2.13104 20.2457C2.13104 22.0571 3.51627 23.4423 5.32773 23.4423H20.2456C22.0571 23.4423 23.4423 22.0571 23.4423 20.2457V10.6556H2.13104V20.2457ZM18.1145 12.7867C18.7538 12.7867 19.18 13.2129 19.18 13.8523C19.18 14.4916 18.7538 14.9178 18.1145 14.9178C17.4751 14.9178 17.0489 14.4916 17.0489 13.8523C17.0489 13.2129 17.4751 12.7867 18.1145 12.7867ZM18.1145 17.049C18.7538 17.049 19.18 17.4752 19.18 18.1145C19.18 18.7539 18.7538 19.1801 18.1145 19.1801C17.4751 19.1801 17.0489 18.7539 17.0489 18.1145C17.0489 17.4752 17.4751 17.049 18.1145 17.049ZM12.7867 12.7867C13.426 12.7867 13.8522 13.2129 13.8522 13.8523C13.8522 14.4916 13.426 14.9178 12.7867 14.9178C12.1473 14.9178 11.7211 14.4916 11.7211 13.8523C11.7211 13.2129 12.1473 12.7867 12.7867 12.7867ZM12.7867 17.049C13.426 17.049 13.8522 17.4752 13.8522 18.1145C13.8522 18.7539 13.426 19.1801 12.7867 19.1801C12.1473 19.1801 11.7211 18.7539 11.7211 18.1145C11.7211 17.4752 12.1473 17.049 12.7867 17.049ZM7.45885 12.7867C8.09819 12.7867 8.52441 13.2129 8.52441 13.8523C8.52441 14.4916 8.09819 14.9178 7.45885 14.9178C6.81952 14.9178 6.39329 14.4916 6.39329 13.8523C6.39329 13.2129 6.81952 12.7867 7.45885 12.7867ZM7.45885 17.049C8.09819 17.049 8.52441 17.4752 8.52441 18.1145C8.52441 18.7539 8.09819 19.1801 7.45885 19.1801C6.81952 19.1801 6.39329 18.7539 6.39329 18.1145C6.39329 17.4752 6.81952 17.049 7.45885 17.049Z" fill="white" stroke="white" stroke-width="1.06556"/>
</svg>
