<svg width="33" height="33" viewBox="0 0 33 33" fill="none" xmlns="http://www.w3.org/2000/svg">
<path fill-rule="evenodd" clip-rule="evenodd" d="M9.075 5.775C9.85402 4.7363 11.0766 4.125 12.375 4.125H27.5C29.7782 4.125 31.625 5.97183 31.625 8.25V24.75C31.625 27.0282 29.7782 28.875 27.5 28.875H12.375C11.0766 28.875 9.85402 28.2637 9.075 27.225L2.8875 18.975C1.7875 17.5083 1.7875 15.4917 2.8875 14.025L9.075 5.775ZM24.3473 13.3473C24.8842 12.8103 24.8842 11.9397 24.3473 11.4027C23.8103 10.8658 22.9397 10.8658 22.4027 11.4027L19.25 14.5555L16.0973 11.4028C15.5603 10.8658 14.6897 10.8658 14.1527 11.4028C13.6158 11.9397 13.6158 12.8103 14.1527 13.3473L17.3055 16.5L14.1527 19.6527C13.6158 20.1897 13.6158 21.0603 14.1527 21.5973C14.6897 22.1342 15.5603 22.1342 16.0973 21.5973L19.25 18.4445L22.4027 21.5973C22.9397 22.1342 23.8103 22.1342 24.3473 21.5973C24.8842 21.0603 24.8842 20.1897 24.3473 19.6527L21.1945 16.5L24.3473 13.3473Z" fill="white" stroke="white" stroke-width="1.375"/>
</svg>
