<svg width="25" height="25" viewBox="0 0 25 25" fill="none" xmlns="http://www.w3.org/2000/svg">
<path d="M5.12692 1.5625V3.02734H14.4827L15.2964 1.5625H5.12692ZM5.31271 3.90625C5.52311 4.43843 5.05139 5.35762 4.85978 5.79043C4.32238 6.99663 3.45705 8.60303 2.80803 10.4501C2.1591 12.2972 1.72346 14.3986 2.06828 16.6083C2.41315 18.8179 3.54865 21.1178 5.95305 23.3219L6.07907 23.4375H18.9209L19.0468 23.3219C21.4513 21.1178 22.5868 18.8179 22.9316 16.6083C23.2765 14.3986 22.8408 12.2972 22.1919 10.45C21.5429 8.60303 20.6776 6.99663 20.1401 5.79038C19.9216 5.29985 19.7621 4.8748 19.6854 4.55151L16.0176 6.27383L19.0956 7.85073L17.3247 11.6816L20.3482 12.6194L12.8521 19.366L16.0735 13.6961L13.2317 13.5412L15.5625 8.83838L11.9878 7.51914L13.9946 3.90625H5.31271Z" fill="#F5F5F5" stroke="black" stroke-width="0.125"/>
</svg>
