<svg width="24" height="24" viewBox="0 0 24 24" fill="none" xmlns="http://www.w3.org/2000/svg">
<path d="M20.8336 19.8415C20.8336 20.3677 20.6245 20.8724 20.2524 21.2445C19.8803 21.6166 19.3757 21.8256 18.8494 21.8256H4.96038C4.43415 21.8256 3.92947 21.6166 3.55737 21.2445C3.18527 20.8724 2.97623 20.3677 2.97623 19.8415C2.98607 18.034 3.61254 16.2841 4.75204 14.8811C5.06558 14.4976 5.51123 14.2452 6.00138 14.1737C6.49154 14.1021 6.99075 14.2164 7.40088 14.4942C8.72804 15.3958 10.2955 15.8779 11.8999 15.8779C13.5044 15.8779 15.0718 15.3958 16.399 14.4942C16.8099 14.2135 17.3114 14.0975 17.8038 14.1692C18.2963 14.2408 18.7439 14.4949 19.0578 14.8811C20.1973 16.2841 20.8237 18.034 20.8336 19.8415ZM11.9049 13.889C13.0822 13.889 14.233 13.5399 15.2119 12.8859C16.1908 12.2318 16.9537 11.3022 17.4042 10.2145C17.8548 9.12682 17.9727 7.92998 17.743 6.77532C17.5133 5.62066 16.9464 4.56003 16.1139 3.72757C15.2815 2.8951 14.2208 2.32818 13.0662 2.09851C11.9115 1.86883 10.7147 1.98671 9.627 2.43724C8.53933 2.88776 7.60968 3.6507 6.95562 4.62958C6.30156 5.60845 5.95245 6.7593 5.95245 7.93658C5.95245 9.51527 6.57958 11.0293 7.69588 12.1456C8.81218 13.2619 10.3262 13.889 11.9049 13.889Z" fill="white" stroke="white" stroke-width="0.992075"/>
</svg>
