<svg width="159" height="154" viewBox="0 0 159 154" fill="none" xmlns="http://www.w3.org/2000/svg">
<path d="M1 80.2375C1 80.2375 50 63.8571 56 63C62 62.1428 68 63 68 63L10.5 80.6184L1 80.2375Z" fill="white"/>
<rect x="20" y="77" width="7" height="27" fill="url(#paint0_linear_138_318)"/>
<path d="M10.5 80L67.5 62L69 65L39.5 75L10.5 84.5V80Z" fill="#CACACA"/>
<path d="M139 102H145L142.75 129H140.5L139 102Z" fill="url(#paint1_linear_138_318)"/>
<path d="M124 106.5L147 83.5V100.5L124 129C124 129 125 128.125 125.5 127C126 125.875 126 124.25 126 124.25V119.5L124 106.5Z" fill="url(#paint2_linear_138_318)"/>
<rect x="11" y="106" width="115" height="24" rx="5" fill="url(#paint3_linear_138_318)"/>
<path d="M66.5 82.5H147C147 82.5 144.5 88 142 89.5C139.5 91 137.5 96 135 97.5C132.5 99 131.5 102.5 129 103.5C126.5 104.5 125 107 125 107C125 107 125.094 107 122.5 106.5C119.906 106 120.188 107 118 106.5C115.812 106 112.125 106.5 108.5 107C104.875 107.5 98.75 107 92 107C85.25 107 68.5 106 68.5 106C68.5 106 47.25 106.5 39.5 107.5C31.75 108.5 25.375 106 25.375 106H18.1875H15L66.5 82.5Z" fill="white"/>
<rect x="66" y="1" width="81" height="82" fill="#DDDDDD"/>
<path d="M147 0.99999C147 0.99999 153.112 -1.49999 154 3.50001C154.888 8.50001 150.5 54 150.5 72.5C150.5 91 147 100 147 100V0.99999Z" fill="url(#paint4_linear_138_318)"/>
<path d="M111.259 130H118.5L111.259 152.5L108 154L111.259 130Z" fill="url(#paint5_linear_138_318)"/>
<path d="M20.2586 130H27.5L20.2586 152.5L17 154L20.2586 130Z" fill="url(#paint6_linear_138_318)"/>
<path d="M0.880879 80.2816C2.27655 79.9079 9.1887 79.9053 10.1191 80.279C11.0496 80.6527 11.5148 84.0189 10.1191 84.5795C8.72347 85.1401 1.8114 85.1402 0.880879 84.5795C-0.0496475 84.0189 -0.514797 80.6553 0.880879 80.2816Z" fill="url(#paint7_linear_138_318)"/>
<path d="M130.994 76.0574L134.994 74.5574L135.494 111.5L131.494 116.057L130.994 76.0574Z" fill="url(#paint8_linear_138_318)"/>
<path d="M119 78.5L158.5 61.5C158.5 61.5 158 63 157 64C156 65 147.875 69.375 147.875 69.375C147.875 69.375 142 72 137 74C132 76 119 82 119 82V78.5Z" fill="#CACACA"/>
<path d="M111.5 78.5C111.5 78.5 149 61.3778 149.5 61.2696C150 61.1615 154 59 158 61.2696C162 63.5393 119 78.5 119 78.5L111.5 78.5Z" fill="white"/>
<path d="M111.641 78.2816C112.656 77.9079 117.683 77.9053 118.359 78.279C119.036 78.6527 119.374 82.0189 118.359 82.5795C117.344 83.1401 112.317 83.1402 111.641 82.5795C110.964 82.0189 110.626 78.6553 111.641 78.2816Z" fill="url(#paint9_linear_138_318)"/>
<defs>
<linearGradient id="paint0_linear_138_318" x1="-0.500001" y1="94.5" x2="45.5" y2="93" gradientUnits="userSpaceOnUse">
<stop stop-color="white"/>
<stop offset="1" stop-color="#818181"/>
</linearGradient>
<linearGradient id="paint1_linear_138_318" x1="132.5" y1="102" x2="159" y2="148" gradientUnits="userSpaceOnUse">
<stop stop-color="#737373"/>
<stop offset="1" stop-color="#D9D9D9"/>
</linearGradient>
<linearGradient id="paint2_linear_138_318" x1="117" y1="65.5" x2="147" y2="113.5" gradientUnits="userSpaceOnUse">
<stop stop-color="#737373"/>
<stop offset="1" stop-color="#D9D9D9"/>
</linearGradient>
<linearGradient id="paint3_linear_138_318" x1="16" y1="-8" x2="60" y2="141" gradientUnits="userSpaceOnUse">
<stop stop-color="#737373"/>
<stop offset="1" stop-color="#D9D9D9"/>
</linearGradient>
<linearGradient id="paint4_linear_138_318" x1="109.693" y1="1" x2="103.702" y2="121.092" gradientUnits="userSpaceOnUse">
<stop stop-color="#737373"/>
<stop offset="1" stop-color="#D9D9D9"/>
</linearGradient>
<linearGradient id="paint5_linear_138_318" x1="109.19" y1="116.903" x2="120.853" y2="141.712" gradientUnits="userSpaceOnUse">
<stop stop-color="#737373"/>
<stop offset="1" stop-color="#D9D9D9"/>
</linearGradient>
<linearGradient id="paint6_linear_138_318" x1="18.1897" y1="116.903" x2="29.8535" y2="141.712" gradientUnits="userSpaceOnUse">
<stop stop-color="#737373"/>
<stop offset="1" stop-color="#D9D9D9"/>
</linearGradient>
<linearGradient id="paint7_linear_138_318" x1="39.9599" y1="95.0441" x2="26.9976" y2="66.6741" gradientUnits="userSpaceOnUse">
<stop stop-color="#8C8B8B"/>
<stop offset="1" stop-color="white"/>
</linearGradient>
<linearGradient id="paint8_linear_138_318" x1="117.5" y1="86" x2="155" y2="85.5" gradientUnits="userSpaceOnUse">
<stop stop-color="#D9D9D9"/>
<stop offset="1" stop-color="#737373"/>
</linearGradient>
<linearGradient id="paint9_linear_138_318" x1="129" y1="87" x2="118.8" y2="71.7303" gradientUnits="userSpaceOnUse">
<stop stop-color="#8C8B8B"/>
<stop offset="1" stop-color="white"/>
</linearGradient>
</defs>
</svg>
