<svg width="267" height="277" viewBox="0 0 267 277" fill="none" xmlns="http://www.w3.org/2000/svg">
<path d="M1.6792 143.784C1.6792 143.784 83.9747 114.293 94.0517 112.75C104.129 111.207 114.206 112.75 114.206 112.75L17.6345 144.47L1.6792 143.784Z" fill="white"/>
<rect x="33.5898" y="137.956" width="11.7565" height="48.6108" fill="url(#paint0_linear_138_318)"/>
<path d="M17.6348 143.357L113.366 110.95L115.885 116.351L66.3402 134.355L17.6348 151.459V143.357Z" fill="#CACACA"/>
<path d="M233.45 182.966H243.527L239.748 231.576H235.969L233.45 182.966Z" fill="url(#paint1_linear_138_318)"/>
<path d="M208.258 191.067L246.886 149.658V180.265L208.258 231.576C208.258 231.576 209.937 230.001 210.777 227.975C211.617 225.95 211.617 223.024 211.617 223.024V214.473L208.258 191.067Z" fill="url(#paint2_linear_138_318)"/>
<rect x="18.4741" y="190.167" width="193.142" height="43.2096" rx="5" fill="url(#paint3_linear_138_318)"/>
<path d="M111.687 147.858H246.886C246.886 147.858 242.688 157.76 238.489 160.461C234.29 163.161 230.931 172.163 226.732 174.864C222.534 177.564 220.854 183.866 216.655 185.666C212.457 187.467 209.937 191.968 209.937 191.968C209.937 191.968 210.095 191.968 205.739 191.067C201.382 190.167 201.855 191.968 198.181 191.067C194.507 190.167 188.314 191.067 182.226 191.968C176.137 192.868 165.85 191.968 154.514 191.968C143.177 191.968 115.046 190.167 115.046 190.167C115.046 190.167 79.3562 191.067 66.3401 192.868C53.324 194.668 42.6172 190.167 42.6172 190.167H30.5458H25.1924L111.687 147.858Z" fill="white"/>
<rect x="110.847" y="1.12524" width="136.039" height="147.633" fill="#DDDDDD"/>
<path d="M246.886 1.12523C246.886 1.12523 257.151 -3.37573 258.643 5.62627C260.135 14.6283 252.764 96.5464 252.764 129.854C252.764 163.161 246.886 179.365 246.886 179.365V1.12523Z" fill="url(#paint4_linear_138_318)"/>
<path d="M186.859 233.377H199.021L186.859 273.886L181.386 276.586L186.859 233.377Z" fill="url(#paint5_linear_138_318)"/>
<path d="M34.0246 233.377H46.1865L34.0246 273.886L28.5518 276.586L34.0246 233.377Z" fill="url(#paint6_linear_138_318)"/>
<path d="M1.47943 143.864C3.82347 143.191 15.4324 143.186 16.9951 143.859C18.5578 144.532 19.3391 150.592 16.9951 151.602C14.6511 152.611 3.04225 152.611 1.47943 151.602C-0.0833829 150.592 -0.864601 144.537 1.47943 143.864Z" fill="url(#paint7_linear_138_318)"/>
<path d="M220.004 136.258L226.722 133.558L227.562 200.069L220.844 208.274L220.004 136.258Z" fill="url(#paint8_linear_138_318)"/>
<path d="M199.86 140.656L266.201 110.049C266.201 110.049 265.361 112.75 263.681 114.55C262.002 116.351 248.356 124.228 248.356 124.228C248.356 124.228 238.489 128.954 230.091 132.554C221.694 136.155 199.86 146.958 199.86 146.958V140.656Z" fill="#CACACA"/>
<path d="M187.264 140.656C187.264 140.656 250.245 109.829 251.085 109.635C251.924 109.44 258.642 105.548 265.36 109.635C272.078 113.721 199.86 140.656 199.86 140.656L187.264 140.656Z" fill="white"/>
<path d="M187.5 140.263C189.205 139.59 197.648 139.585 198.784 140.258C199.921 140.931 200.489 146.992 198.784 148.001C197.08 149.01 188.637 149.01 187.5 148.001C186.364 146.992 185.796 140.936 187.5 140.263Z" fill="url(#paint9_linear_138_318)"/>
<defs>
<linearGradient id="paint0_linear_138_318" x1="-0.839889" y1="169.463" x2="76.4277" y2="167.112" gradientUnits="userSpaceOnUse">
<stop stop-color="white"/>
<stop offset="1" stop-color="#818181"/>
</linearGradient>
<linearGradient id="paint1_linear_138_318" x1="222.533" y1="182.966" x2="271.846" y2="262.816" gradientUnits="userSpaceOnUse">
<stop stop-color="#737373"/>
<stop offset="1" stop-color="#D9D9D9"/>
</linearGradient>
<linearGradient id="paint2_linear_138_318" x1="196.501" y1="117.251" x2="252.073" y2="200.195" gradientUnits="userSpaceOnUse">
<stop stop-color="#737373"/>
<stop offset="1" stop-color="#D9D9D9"/>
</linearGradient>
<linearGradient id="paint3_linear_138_318" x1="26.8716" y1="-15.0784" x2="110.788" y2="250.01" gradientUnits="userSpaceOnUse">
<stop stop-color="#737373"/>
<stop offset="1" stop-color="#D9D9D9"/>
</linearGradient>
<linearGradient id="paint4_linear_138_318" x1="184.23" y1="1.12525" x2="172.671" y2="217.258" gradientUnits="userSpaceOnUse">
<stop stop-color="#737373"/>
<stop offset="1" stop-color="#D9D9D9"/>
</linearGradient>
<linearGradient id="paint5_linear_138_318" x1="183.384" y1="209.797" x2="205.304" y2="253.289" gradientUnits="userSpaceOnUse">
<stop stop-color="#737373"/>
<stop offset="1" stop-color="#D9D9D9"/>
</linearGradient>
<linearGradient id="paint6_linear_138_318" x1="30.5498" y1="209.797" x2="52.4691" y2="253.289" gradientUnits="userSpaceOnUse">
<stop stop-color="#737373"/>
<stop offset="1" stop-color="#D9D9D9"/>
</linearGradient>
<linearGradient id="paint7_linear_138_318" x1="67.1125" y1="170.442" x2="42.7236" y2="120.647" gradientUnits="userSpaceOnUse">
<stop stop-color="#8C8B8B"/>
<stop offset="1" stop-color="white"/>
</linearGradient>
<linearGradient id="paint8_linear_138_318" x1="197.341" y1="154.159" x2="260.324" y2="153.376" gradientUnits="userSpaceOnUse">
<stop stop-color="#D9D9D9"/>
<stop offset="1" stop-color="#737373"/>
</linearGradient>
<linearGradient id="paint9_linear_138_318" x1="216.655" y1="155.96" x2="197.836" y2="129.677" gradientUnits="userSpaceOnUse">
<stop stop-color="#8C8B8B"/>
<stop offset="1" stop-color="white"/>
</linearGradient>
</defs>
</svg>
