<svg width="159" height="243" viewBox="0 0 159 243" fill="none" xmlns="http://www.w3.org/2000/svg">
<path d="M21.7108 13.528C21.5788 12.8843 21.7682 12.2282 22.2875 11.8256C25.5538 9.29385 39.8162 0.5 80.3511 0.5C121.029 0.5 133.623 9.35592 136.365 11.8521C136.797 12.2448 136.933 12.8288 136.815 13.4003L135.265 20.9592C135.104 21.7437 134.489 22.349 133.696 22.4602C129.725 23.0166 115.813 24.5 80.3511 24.5C44.4512 24.5 29.1471 22.9798 24.8448 22.44C24.0263 22.3373 23.3909 21.7204 23.2251 20.9124L21.7108 13.528Z" fill="white" fill-opacity="0.15"/>
<path d="M29.8307 91.9119C31.6299 88.8676 34.9032 87 38.4395 87L120.561 87C124.097 87 127.37 88.8677 129.169 91.9119L148.082 123.912C152.022 130.578 147.217 139 139.474 139H19.5264C11.783 139 6.97766 130.578 10.9176 123.912L29.8307 91.9119Z" fill="white" fill-opacity="0.15"/>
<path d="M9.25846 139.486C9.25846 139.486 9.98001 146.771 13 146.771C16.02 146.771 24.2684 146.771 24.2684 146.771H43.0309H79.6177H118.55H138.016C138.016 146.771 145.5 146.771 147.162 146.771C148.825 146.771 149.977 139 149.977 139C149.977 139 149.977 148.714 147.162 152.114C144.348 155.514 142.706 156 138.016 156C133.325 156 114.328 156 114.328 156H77.2722H43.4998C43.4998 156 30.8352 156 24.7375 155.514C18.6398 155.029 15.3563 155.514 11.6038 152.114C7.85128 148.714 9.25846 139.486 9.25846 139.486Z" fill="url(#paint0_linear_140_86)" fill-opacity="0.15"/>
<path d="M20 155H27V240C27 241.105 26.1046 242 25 242H22C20.8954 242 20 241.105 20 240V155Z" fill="url(#paint1_linear_140_86)" fill-opacity="0.15"/>
<path d="M131 156H138V241C138 242.105 137.105 243 136 243H133C131.895 243 131 242.105 131 241V156Z" fill="url(#paint2_linear_140_86)" fill-opacity="0.15"/>
<path d="M33 156H40V202C40 203.105 39.1046 204 38 204H35C33.8954 204 33 203.105 33 202V156Z" fill="url(#paint3_linear_140_86)" fill-opacity="0.15"/>
<path d="M119 156H126V202C126 203.105 125.105 204 124 204H121C119.895 204 119 203.105 119 202V156Z" fill="url(#paint4_linear_140_86)" fill-opacity="0.15"/>
<path d="M158.707 123C160.815 80.7901 151.332 40.3722 137.107 12L135 22.4529C142.902 39.3767 153.965 69.2422 150.805 110.058C154.493 114.04 155.558 122.044 158.707 123Z" fill="#D9D9D9"/>
<path d="M0.999979 123.5C-1.00002 81.1 8 40.5 21.4997 12L23.4998 22.5C16 39.5 5.50031 69.5 8.5 110.5C5 114.5 3.98893 122.539 0.999979 123.5Z" fill="#D9D9D9"/>
<defs>
<linearGradient id="paint0_linear_140_86" x1="82.7321" y1="161.829" x2="82.7321" y2="120.057" gradientUnits="userSpaceOnUse">
<stop stop-color="white"/>
<stop offset="1" stop-color="#B7B7B7"/>
</linearGradient>
<linearGradient id="paint1_linear_140_86" x1="24" y1="164.667" x2="24" y2="128.685" gradientUnits="userSpaceOnUse">
<stop stop-color="#FAFAFA"/>
<stop offset="1" stop-color="#737373"/>
</linearGradient>
<linearGradient id="paint2_linear_140_86" x1="135" y1="165.667" x2="135" y2="129.685" gradientUnits="userSpaceOnUse">
<stop stop-color="#FAFAFA"/>
<stop offset="1" stop-color="#737373"/>
</linearGradient>
<linearGradient id="paint3_linear_140_86" x1="18" y1="191.733" x2="34.8747" y2="139" gradientUnits="userSpaceOnUse">
<stop stop-color="#D9D9D9"/>
<stop offset="1" stop-color="#737373"/>
</linearGradient>
<linearGradient id="paint4_linear_140_86" x1="104" y1="191.733" x2="120.875" y2="139" gradientUnits="userSpaceOnUse">
<stop stop-color="#D9D9D9"/>
<stop offset="1" stop-color="#737373"/>
</linearGradient>
</defs>
</svg>
