<svg width="186" height="285" viewBox="0 0 186 285" fill="none" xmlns="http://www.w3.org/2000/svg">
<path d="M24.5585 15.0894C24.4265 14.4457 24.6159 13.789 25.1308 13.3807C28.6781 10.5681 45.2068 0 93.3087 0C141.553 0 156.086 10.6307 159.058 13.4055C159.484 13.8036 159.622 14.3903 159.505 14.9617L157.611 24.196C157.45 24.9806 156.847 25.5845 156.055 25.699C151.736 26.3224 135.601 28.1229 93.3087 28.1229C50.5697 28.1229 32.7418 26.2841 28.0352 25.6796C27.2171 25.5745 26.5821 24.9572 26.4164 24.1492L24.5585 15.0894Z" fill="white" fill-opacity="0.15"/>
<path d="M34.6079 106.272C36.4072 103.227 39.6805 101.36 43.2167 101.36L141.406 101.36C144.942 101.36 148.215 103.227 150.014 106.272L174.207 147.204C178.147 153.871 173.342 162.293 165.598 162.293H19.0239C11.2805 162.293 6.47522 153.871 10.4151 147.205L34.6079 106.272Z" fill="white" fill-opacity="0.15"/>
<path d="M10.0031 162.862C10.0031 162.862 10.8486 171.399 14.3873 171.399C17.9261 171.399 27.5915 171.399 27.5915 171.399H49.5772H92.4491H138.069H160.879C160.879 171.399 169.649 171.399 171.597 171.399C173.545 171.399 174.895 162.293 174.895 162.293C174.895 162.293 174.895 173.676 171.597 177.66C168.299 181.644 166.376 182.213 160.879 182.213C155.383 182.213 133.122 182.213 133.122 182.213H89.7008H50.1267C50.1267 182.213 35.2864 182.213 28.1412 181.644C20.996 181.075 17.1484 181.644 12.7513 177.66C8.35414 173.676 10.0031 162.862 10.0031 162.862Z" fill="url(#paint0_linear_140_86)" fill-opacity="0.15"/>
<path d="M22.5898 181.041H30.7924V280.987C30.7924 282.091 29.8969 282.987 28.7924 282.987H24.5898C23.4853 282.987 22.5898 282.091 22.5898 280.987V181.041Z" fill="url(#paint1_linear_140_86)" fill-opacity="0.15"/>
<path d="M152.659 182.213H160.861V282.158C160.861 283.263 159.966 284.158 158.861 284.158H154.659C153.554 284.158 152.659 283.263 152.659 282.158V182.213Z" fill="url(#paint2_linear_140_86)" fill-opacity="0.15"/>
<path d="M37.8232 182.213H46.0258V236.459C46.0258 237.563 45.1303 238.459 44.0258 238.459H39.8232C38.7187 238.459 37.8232 237.563 37.8232 236.459V182.213Z" fill="url(#paint3_linear_140_86)" fill-opacity="0.15"/>
<path d="M138.597 182.213H146.8V236.459C146.8 237.563 145.904 238.459 144.8 238.459H140.597C139.493 238.459 138.597 237.563 138.597 236.459V182.213Z" fill="url(#paint4_linear_140_86)" fill-opacity="0.15"/>
<path d="M185.125 143.544C187.595 94.0829 176.483 46.7217 159.815 13.4755L157.345 25.7241C166.605 45.5551 179.569 80.5511 175.865 128.379C180.187 133.045 181.435 142.423 185.125 143.544Z" fill="#D9D9D9"/>
<path d="M0.325536 144.13C-2.01804 94.446 8.52808 46.8714 24.3468 13.4755L26.6905 25.7792C17.9024 45.6996 5.59897 80.8533 9.11397 128.897C5.01271 133.584 3.82795 143.004 0.325536 144.13Z" fill="#D9D9D9"/>
<defs>
<linearGradient id="paint0_linear_140_86" x1="96.0986" y1="189.043" x2="96.0986" y2="140.096" gradientUnits="userSpaceOnUse">
<stop stop-color="white"/>
<stop offset="1" stop-color="#B7B7B7"/>
</linearGradient>
<linearGradient id="paint1_linear_140_86" x1="27.277" y1="192.369" x2="27.277" y2="150.206" gradientUnits="userSpaceOnUse">
<stop stop-color="#FAFAFA"/>
<stop offset="1" stop-color="#737373"/>
</linearGradient>
<linearGradient id="paint2_linear_140_86" x1="157.346" y1="193.54" x2="157.346" y2="151.378" gradientUnits="userSpaceOnUse">
<stop stop-color="#FAFAFA"/>
<stop offset="1" stop-color="#737373"/>
</linearGradient>
<linearGradient id="paint3_linear_140_86" x1="20.2464" y1="224.085" x2="40.02" y2="162.292" gradientUnits="userSpaceOnUse">
<stop stop-color="#D9D9D9"/>
<stop offset="1" stop-color="#737373"/>
</linearGradient>
<linearGradient id="paint4_linear_140_86" x1="121.02" y1="224.085" x2="140.794" y2="162.292" gradientUnits="userSpaceOnUse">
<stop stop-color="#D9D9D9"/>
<stop offset="1" stop-color="#737373"/>
</linearGradient>
</defs>
</svg>
