<svg width="222" height="222" viewBox="0 0 222 222" fill="none" xmlns="http://www.w3.org/2000/svg">
<rect x="-0.00268555" y="15.4905" width="211.947" height="167.663" fill="white"/>
<path d="M18.562 0H222L211.944 15.4906H-0.00268555L18.562 0Z" fill="url(#paint0_linear_138_181)"/>
<path d="M211.944 15.4906L222 0L220.453 170.397L211.944 183.153V15.4906Z" fill="url(#paint1_linear_138_181)"/>
<rect x="0.497314" y="19.6354" width="210.947" height="51.8503" fill="#FBFBFB" stroke="#D6D6D6"/>
<path d="M20.1091 40.3596C20.1091 38.7028 21.4523 37.3596 23.1091 37.3596H63.5208C65.1777 37.3596 66.5208 38.7028 66.5208 40.3596V50.7614C66.5208 52.4183 65.1777 53.7614 63.5208 53.7614H23.1091C21.4523 53.7614 20.1091 52.4183 20.1091 50.7614V40.3596Z" fill="#D6D6D6"/>
<path d="M23.2031 47.383C23.2031 44.8668 25.2429 42.827 27.7592 42.827H58.8705C61.3867 42.827 63.4266 44.8668 63.4266 47.383C63.4266 49.8993 61.3868 51.9391 58.8705 51.9391H27.7592C25.243 51.9391 23.2031 49.8993 23.2031 47.383Z" fill="url(#paint2_radial_138_181)"/>
<path d="M34.0325 50.1166C34.8061 50.1166 50.2766 50.1166 51.0501 50.1166C51.8237 50.1166 55.6913 51.9391 55.6913 51.9391H29.3914C29.3914 51.9391 33.259 50.1166 34.0325 50.1166Z" fill="#D9D9D9"/>
<path d="M133.044 40.3596C133.044 38.7028 134.387 37.3596 136.044 37.3596H176.456C178.112 37.3596 179.456 38.7028 179.456 40.3596V50.7614C179.456 52.4183 178.112 53.7614 176.456 53.7614H136.044C134.387 53.7614 133.044 52.4183 133.044 50.7614V40.3596Z" fill="#D6D6D6"/>
<path d="M136.138 47.383C136.138 44.8668 138.178 42.827 140.694 42.827H171.806C174.322 42.827 176.362 44.8668 176.362 47.383C176.362 49.8993 174.322 51.9391 171.806 51.9391H140.694C138.178 51.9391 136.138 49.8993 136.138 47.383Z" fill="url(#paint3_radial_138_181)"/>
<path d="M146.968 50.1166C147.741 50.1166 163.212 50.1166 163.985 50.1166C164.759 50.1166 168.626 51.9391 168.626 51.9391H142.326C142.326 51.9391 146.194 50.1166 146.968 50.1166Z" fill="#D9D9D9"/>
<rect x="0.497314" y="72.4857" width="210.947" height="51.8503" fill="#FBFBFB" stroke="#D6D6D6"/>
<path d="M20.1091 93.2099C20.1091 91.553 21.4523 90.2099 23.1091 90.2099H63.5208C65.1777 90.2099 66.5208 91.553 66.5208 93.2099V103.612C66.5208 105.269 65.1777 106.612 63.5208 106.612H23.1091C21.4523 106.612 20.1091 105.269 20.1091 103.612V93.2099Z" fill="#D6D6D6"/>
<path d="M23.2031 100.233C23.2031 97.7169 25.2429 95.6771 27.7592 95.6771H58.8705C61.3867 95.6771 63.4266 97.7169 63.4266 100.233C63.4266 102.749 61.3868 104.789 58.8705 104.789H27.7592C25.243 104.789 23.2031 102.749 23.2031 100.233Z" fill="url(#paint4_radial_138_181)"/>
<path d="M34.0325 102.967C34.8061 102.967 50.2766 102.967 51.0501 102.967C51.8237 102.967 55.6913 104.789 55.6913 104.789H29.3914C29.3914 104.789 33.259 102.967 34.0325 102.967Z" fill="#D9D9D9"/>
<path d="M133.044 93.2099C133.044 91.553 134.387 90.2099 136.044 90.2099H176.456C178.112 90.2099 179.456 91.553 179.456 93.2099V103.612C179.456 105.269 178.112 106.612 176.456 106.612H136.044C134.387 106.612 133.044 105.269 133.044 103.612V93.2099Z" fill="#D6D6D6"/>
<path d="M136.138 100.233C136.138 97.7169 138.178 95.6771 140.694 95.6771H171.806C174.322 95.6771 176.362 97.7169 176.362 100.233C176.362 102.749 174.322 104.789 171.806 104.789H140.694C138.178 104.789 136.138 102.749 136.138 100.233Z" fill="url(#paint5_radial_138_181)"/>
<path d="M146.968 102.967C147.741 102.967 163.212 102.967 163.985 102.967C164.759 102.967 168.626 104.789 168.626 104.789H142.326C142.326 104.789 146.194 102.967 146.968 102.967Z" fill="#D9D9D9"/>
<rect x="0.497314" y="125.336" width="210.947" height="51.8503" fill="#FBFBFB" stroke="#D6D6D6"/>
<path d="M20.1091 146.06C20.1091 144.403 21.4523 143.06 23.1091 143.06H63.5208C65.1777 143.06 66.5208 144.403 66.5208 146.06V156.462C66.5208 158.119 65.1777 159.462 63.5208 159.462H23.1091C21.4523 159.462 20.1091 158.119 20.1091 156.462V146.06Z" fill="#D6D6D6"/>
<path d="M23.2031 153.083C23.2031 150.567 25.2429 148.527 27.7592 148.527H58.8705C61.3867 148.527 63.4266 150.567 63.4266 153.083C63.4266 155.6 61.3868 157.64 58.8705 157.64H27.7592C25.243 157.64 23.2031 155.6 23.2031 153.083Z" fill="url(#paint6_radial_138_181)"/>
<path d="M34.0325 155.817C34.8061 155.817 50.2766 155.817 51.0501 155.817C51.8237 155.817 55.6913 157.64 55.6913 157.64H29.3914C29.3914 157.64 33.259 155.817 34.0325 155.817Z" fill="#D9D9D9"/>
<path d="M133.044 146.06C133.044 144.403 134.387 143.06 136.044 143.06H176.456C178.112 143.06 179.456 144.403 179.456 146.06V156.462C179.456 158.119 178.112 159.462 176.456 159.462H136.044C134.387 159.462 133.044 158.119 133.044 156.462V146.06Z" fill="#D6D6D6"/>
<path d="M136.138 153.083C136.138 150.567 138.178 148.527 140.694 148.527H171.806C174.322 148.527 176.362 150.567 176.362 153.083C176.362 155.6 174.322 157.64 171.806 157.64H140.694C138.178 157.64 136.138 155.6 136.138 153.083Z" fill="url(#paint7_radial_138_181)"/>
<path d="M146.968 155.817C147.741 155.817 163.212 155.817 163.985 155.817C164.759 155.817 168.626 157.64 168.626 157.64H142.326C142.326 157.64 146.194 155.817 146.968 155.817Z" fill="#D9D9D9"/>
<path d="M29.3914 183.154H38.6737C38.6737 183.154 38.6737 183.154 38.6737 197.94C38.6737 212.726 35.1928 221.424 35.1928 221.424H32.8722C32.8722 221.424 29.3914 212.726 29.3914 197.94C29.3914 183.154 29.3914 183.154 29.3914 183.154Z" fill="url(#paint8_linear_138_181)"/>
<path d="M171.72 183.154H181.003C181.003 183.154 181.003 183.154 181.003 197.94C181.003 212.726 177.522 221.424 177.522 221.424H175.201C175.201 221.424 171.72 212.726 171.72 197.94C171.72 183.154 171.72 183.154 171.72 183.154Z" fill="url(#paint9_linear_138_181)"/>
<path d="M190.285 183.154H199.568C199.568 183.154 199.568 184.065 199.568 190.899C199.568 197.733 196.087 203.2 196.087 203.2H193.766C193.766 203.2 190.285 196.822 190.285 190.899C190.285 184.976 190.285 183.154 190.285 183.154Z" fill="url(#paint10_linear_138_181)"/>
<path d="M43.3149 183.154H52.5973C52.5973 183.154 52.5973 184.065 52.5973 190.899C52.5973 197.733 49.1164 203.2 49.1164 203.2H46.7958C46.7958 203.2 43.3149 196.822 43.3149 190.899C43.3149 184.976 43.3149 183.154 43.3149 183.154Z" fill="url(#paint11_linear_138_181)"/>
<defs>
<linearGradient id="paint0_linear_138_181" x1="449.417" y1="89.2987" x2="-61.9611" y2="-35.4993" gradientUnits="userSpaceOnUse">
<stop stop-color="white"/>
<stop offset="1" stop-color="#E2E2E2"/>
</linearGradient>
<linearGradient id="paint1_linear_138_181" x1="240.565" y1="105.701" x2="168.192" y2="-18.8579" gradientUnits="userSpaceOnUse">
<stop stop-color="#D9D9D9"/>
<stop offset="1" stop-color="#737373"/>
</linearGradient>
<radialGradient id="paint2_radial_138_181" cx="0" cy="0" r="1" gradientUnits="userSpaceOnUse" gradientTransform="translate(43.3148 51.9391) rotate(-90) scale(49.2054 197.055)">
<stop stop-color="white"/>
<stop offset="1" stop-color="#A6A6A6"/>
</radialGradient>
<radialGradient id="paint3_radial_138_181" cx="0" cy="0" r="1" gradientUnits="userSpaceOnUse" gradientTransform="translate(156.25 51.9391) rotate(-90) scale(49.2054 197.055)">
<stop stop-color="white"/>
<stop offset="1" stop-color="#A6A6A6"/>
</radialGradient>
<radialGradient id="paint4_radial_138_181" cx="0" cy="0" r="1" gradientUnits="userSpaceOnUse" gradientTransform="translate(43.3148 104.789) rotate(-90) scale(49.2054 197.055)">
<stop stop-color="white"/>
<stop offset="1" stop-color="#A6A6A6"/>
</radialGradient>
<radialGradient id="paint5_radial_138_181" cx="0" cy="0" r="1" gradientUnits="userSpaceOnUse" gradientTransform="translate(156.25 104.789) rotate(-90) scale(49.2054 197.055)">
<stop stop-color="white"/>
<stop offset="1" stop-color="#A6A6A6"/>
</radialGradient>
<radialGradient id="paint6_radial_138_181" cx="0" cy="0" r="1" gradientUnits="userSpaceOnUse" gradientTransform="translate(43.3148 157.64) rotate(-90) scale(49.2054 197.055)">
<stop stop-color="white"/>
<stop offset="1" stop-color="#A6A6A6"/>
</radialGradient>
<radialGradient id="paint7_radial_138_181" cx="0" cy="0" r="1" gradientUnits="userSpaceOnUse" gradientTransform="translate(156.25 157.64) rotate(-90) scale(49.2054 197.055)">
<stop stop-color="white"/>
<stop offset="1" stop-color="#A6A6A6"/>
</radialGradient>
<linearGradient id="paint8_linear_138_181" x1="44.4752" y1="194.461" x2="21.5324" y2="158.755" gradientUnits="userSpaceOnUse">
<stop stop-color="white"/>
<stop offset="1" stop-color="#999999"/>
</linearGradient>
<linearGradient id="paint9_linear_138_181" x1="186.804" y1="194.461" x2="163.861" y2="158.755" gradientUnits="userSpaceOnUse">
<stop stop-color="white"/>
<stop offset="1" stop-color="#999999"/>
</linearGradient>
<linearGradient id="paint10_linear_138_181" x1="211.944" y1="199.555" x2="183.798" y2="168.494" gradientUnits="userSpaceOnUse">
<stop stop-color="white"/>
<stop offset="1" stop-color="#999999"/>
</linearGradient>
<linearGradient id="paint11_linear_138_181" x1="69.6149" y1="201.378" x2="34.8858" y2="168.793" gradientUnits="userSpaceOnUse">
<stop stop-color="white"/>
<stop offset="1" stop-color="#999999"/>
</linearGradient>
</defs>
</svg>
