<svg width="275" height="275" viewBox="0 0 275 275" fill="none" xmlns="http://www.w3.org/2000/svg">
<rect y="19.2953" width="262.543" height="207.688" fill="white"/>
<path d="M22.9965 0.106781H275L262.543 19.2953H0L22.9965 0.106781Z" fill="url(#paint0_linear_138_181)"/>
<path d="M262.543 19.2953L275 0.106781L273.084 211.181L262.543 226.983V19.2953Z" fill="url(#paint1_linear_138_181)"/>
<rect x="0.5" y="24.3103" width="261.543" height="64.4668" fill="#FBFBFB" stroke="#D6D6D6"/>
<path d="M24.9131 49.385C24.9131 47.7282 26.2562 46.385 27.9131 46.385H79.4043C81.0612 46.385 82.4043 47.7282 82.4043 49.385V63.7023C82.4043 65.3592 81.0612 66.7023 79.4043 66.7023H27.9131C26.2562 66.7023 24.9131 65.3592 24.9131 63.7023V49.385Z" fill="#D6D6D6"/>
<path d="M28.7451 58.1575C28.7451 55.3961 30.9837 53.1575 33.7451 53.1575H73.5708C76.3323 53.1575 78.5708 55.3961 78.5708 58.1575V59.4449C78.5708 62.2063 76.3323 64.4449 73.5708 64.4449H33.7451C30.9837 64.4449 28.7451 62.2063 28.7451 59.4449V58.1575Z" fill="url(#paint2_radial_138_181)"/>
<path d="M42.1603 62.1874C43.1184 62.1874 62.2822 62.1874 63.2404 62.1874C64.1986 62.1874 68.9895 64.4449 68.9895 64.4449H36.4111C36.4111 64.4449 41.2021 62.1874 42.1603 62.1874Z" fill="#D9D9D9"/>
<path d="M164.808 49.385C164.808 47.7282 166.151 46.385 167.808 46.385H219.299C220.956 46.385 222.299 47.7282 222.299 49.385V63.7023C222.299 65.3592 220.956 66.7023 219.299 66.7023H167.808C166.151 66.7023 164.808 65.3592 164.808 63.7023V49.385Z" fill="#D6D6D6"/>
<path d="M168.641 58.1575C168.641 55.3961 170.88 53.1575 173.641 53.1575H213.467C216.228 53.1575 218.467 55.3961 218.467 58.1575V59.4449C218.467 62.2063 216.228 64.4449 213.467 64.4449H173.641C170.88 64.4449 168.641 62.2063 168.641 59.4449V58.1575Z" fill="url(#paint3_radial_138_181)"/>
<path d="M182.056 62.1874C183.014 62.1874 202.178 62.1874 203.136 62.1874C204.094 62.1874 208.885 64.4449 208.885 64.4449H176.307C176.307 64.4449 181.098 62.1874 182.056 62.1874Z" fill="#D9D9D9"/>
<rect x="0.5" y="89.7772" width="261.543" height="64.4668" fill="#FBFBFB" stroke="#D6D6D6"/>
<path d="M24.9131 114.852C24.9131 113.195 26.2562 111.852 27.9131 111.852H79.4043C81.0612 111.852 82.4043 113.195 82.4043 114.852V129.169C82.4043 130.826 81.0612 132.169 79.4043 132.169H27.9131C26.2562 132.169 24.9131 130.826 24.9131 129.169V114.852Z" fill="#D6D6D6"/>
<path d="M28.7451 123.624C28.7451 120.863 30.9837 118.624 33.7451 118.624H73.5708C76.3323 118.624 78.5708 120.863 78.5708 123.624V124.912C78.5708 127.673 76.3323 129.912 73.5708 129.912H33.7451C30.9837 129.912 28.7451 127.673 28.7451 124.912V123.624Z" fill="url(#paint4_radial_138_181)"/>
<path d="M42.1603 127.654C43.1184 127.654 62.2822 127.654 63.2404 127.654C64.1986 127.654 68.9895 129.912 68.9895 129.912H36.4111C36.4111 129.912 41.2021 127.654 42.1603 127.654Z" fill="#D9D9D9"/>
<path d="M164.808 114.852C164.808 113.195 166.151 111.852 167.808 111.852H219.299C220.956 111.852 222.299 113.195 222.299 114.852V129.169C222.299 130.826 220.956 132.169 219.299 132.169H167.808C166.151 132.169 164.808 130.826 164.808 129.169V114.852Z" fill="#D6D6D6"/>
<path d="M168.641 123.624C168.641 120.863 170.88 118.624 173.641 118.624H213.467C216.228 118.624 218.467 120.863 218.467 123.624V124.912C218.467 127.673 216.228 129.912 213.467 129.912H173.641C170.88 129.912 168.641 127.673 168.641 124.912V123.624Z" fill="url(#paint5_radial_138_181)"/>
<path d="M182.056 127.654C183.014 127.654 202.178 127.654 203.136 127.654C204.094 127.654 208.885 129.912 208.885 129.912H176.307C176.307 129.912 181.098 127.654 182.056 127.654Z" fill="#D9D9D9"/>
<rect x="0.5" y="155.244" width="261.543" height="64.4668" fill="#FBFBFB" stroke="#D6D6D6"/>
<path d="M24.9131 180.319C24.9131 178.662 26.2562 177.319 27.9131 177.319H79.4043C81.0612 177.319 82.4043 178.662 82.4043 180.319V194.636C82.4043 196.293 81.0612 197.636 79.4043 197.636H27.9131C26.2562 197.636 24.9131 196.293 24.9131 194.636V180.319Z" fill="#D6D6D6"/>
<path d="M28.7451 189.091C28.7451 186.33 30.9837 184.091 33.7451 184.091H73.5708C76.3323 184.091 78.5708 186.33 78.5708 189.091V190.379C78.5708 193.14 76.3323 195.379 73.5708 195.379H33.7451C30.9837 195.379 28.7451 193.14 28.7451 190.379V189.091Z" fill="url(#paint6_radial_138_181)"/>
<path d="M42.1603 193.121C43.1184 193.121 62.2822 193.121 63.2404 193.121C64.1986 193.121 68.9895 195.379 68.9895 195.379H36.4111C36.4111 195.379 41.2021 193.121 42.1603 193.121Z" fill="#D9D9D9"/>
<path d="M164.808 180.319C164.808 178.662 166.151 177.319 167.808 177.319H219.299C220.956 177.319 222.299 178.662 222.299 180.319V194.636C222.299 196.293 220.956 197.636 219.299 197.636H167.808C166.151 197.636 164.808 196.293 164.808 194.636V180.319Z" fill="#D6D6D6"/>
<path d="M168.641 189.091C168.641 186.33 170.88 184.091 173.641 184.091H213.467C216.228 184.091 218.467 186.33 218.467 189.091V190.379C218.467 193.14 216.228 195.379 213.467 195.379H173.641C170.88 195.379 168.641 193.14 168.641 190.379V189.091Z" fill="url(#paint7_radial_138_181)"/>
<path d="M182.056 193.121C183.014 193.121 202.178 193.121 203.136 193.121C204.094 193.121 208.885 195.379 208.885 195.379H176.307C176.307 195.379 181.098 193.121 182.056 193.121Z" fill="#D9D9D9"/>
<path d="M36.4111 226.983H47.9094C47.9094 226.983 47.9094 226.983 47.9094 245.3C47.9094 263.616 43.5975 274.39 43.5975 274.39H40.723C40.723 274.39 36.4111 263.616 36.4111 245.3C36.4111 226.983 36.4111 226.983 36.4111 226.983Z" fill="url(#paint8_linear_138_181)"/>
<path d="M212.718 226.983H224.216C224.216 226.983 224.216 226.983 224.216 245.3C224.216 263.616 219.904 274.39 219.904 274.39H217.03C217.03 274.39 212.718 263.616 212.718 245.3C212.718 226.983 212.718 226.983 212.718 226.983Z" fill="url(#paint9_linear_138_181)"/>
<path d="M235.714 226.983H247.213C247.213 226.983 247.213 228.112 247.213 236.578C247.213 245.043 242.901 251.816 242.901 251.816H240.026C240.026 251.816 235.714 243.914 235.714 236.578C235.714 229.241 235.714 226.983 235.714 226.983Z" fill="url(#paint10_linear_138_181)"/>
<path d="M53.6582 226.983H65.1564C65.1564 226.983 65.1564 228.112 65.1564 236.578C65.1564 245.043 60.8446 251.816 60.8446 251.816H57.97C57.97 251.816 53.6582 243.914 53.6582 236.578C53.6582 229.241 53.6582 226.983 53.6582 226.983Z" fill="url(#paint11_linear_138_181)"/>
<defs>
<linearGradient id="paint0_linear_138_181" x1="556.707" y1="110.723" x2="-76.7494" y2="-43.867" gradientUnits="userSpaceOnUse">
<stop stop-color="white"/>
<stop offset="1" stop-color="#E2E2E2"/>
</linearGradient>
<linearGradient id="paint1_linear_138_181" x1="297.996" y1="131.04" x2="208.347" y2="-23.2529" gradientUnits="userSpaceOnUse">
<stop stop-color="#D9D9D9"/>
<stop offset="1" stop-color="#737373"/>
</linearGradient>
<radialGradient id="paint2_radial_138_181" cx="0" cy="0" r="1" gradientUnits="userSpaceOnUse" gradientTransform="translate(53.658 64.4449) rotate(-90) scale(60.9519 244.097)">
<stop stop-color="white"/>
<stop offset="1" stop-color="#A6A6A6"/>
</radialGradient>
<radialGradient id="paint3_radial_138_181" cx="0" cy="0" r="1" gradientUnits="userSpaceOnUse" gradientTransform="translate(193.554 64.4449) rotate(-90) scale(60.9519 244.097)">
<stop stop-color="white"/>
<stop offset="1" stop-color="#A6A6A6"/>
</radialGradient>
<radialGradient id="paint4_radial_138_181" cx="0" cy="0" r="1" gradientUnits="userSpaceOnUse" gradientTransform="translate(53.658 129.912) rotate(-90) scale(60.9519 244.097)">
<stop stop-color="white"/>
<stop offset="1" stop-color="#A6A6A6"/>
</radialGradient>
<radialGradient id="paint5_radial_138_181" cx="0" cy="0" r="1" gradientUnits="userSpaceOnUse" gradientTransform="translate(193.554 129.912) rotate(-90) scale(60.9519 244.097)">
<stop stop-color="white"/>
<stop offset="1" stop-color="#A6A6A6"/>
</radialGradient>
<radialGradient id="paint6_radial_138_181" cx="0" cy="0" r="1" gradientUnits="userSpaceOnUse" gradientTransform="translate(53.658 195.379) rotate(-90) scale(60.9519 244.097)">
<stop stop-color="white"/>
<stop offset="1" stop-color="#A6A6A6"/>
</radialGradient>
<radialGradient id="paint7_radial_138_181" cx="0" cy="0" r="1" gradientUnits="userSpaceOnUse" gradientTransform="translate(193.554 195.379) rotate(-90) scale(60.9519 244.097)">
<stop stop-color="white"/>
<stop offset="1" stop-color="#A6A6A6"/>
</radialGradient>
<linearGradient id="paint8_linear_138_181" x1="55.0958" y1="240.99" x2="26.676" y2="196.76" gradientUnits="userSpaceOnUse">
<stop stop-color="white"/>
<stop offset="1" stop-color="#999999"/>
</linearGradient>
<linearGradient id="paint9_linear_138_181" x1="231.402" y1="240.99" x2="202.983" y2="196.76" gradientUnits="userSpaceOnUse">
<stop stop-color="white"/>
<stop offset="1" stop-color="#999999"/>
</linearGradient>
<linearGradient id="paint10_linear_138_181" x1="262.544" y1="247.301" x2="227.679" y2="208.825" gradientUnits="userSpaceOnUse">
<stop stop-color="white"/>
<stop offset="1" stop-color="#999999"/>
</linearGradient>
<linearGradient id="paint11_linear_138_181" x1="86.2366" y1="249.558" x2="43.2169" y2="209.194" gradientUnits="userSpaceOnUse">
<stop stop-color="white"/>
<stop offset="1" stop-color="#999999"/>
</linearGradient>
</defs>
</svg>
