<svg width="178" height="284" viewBox="0 0 178 284" fill="none" xmlns="http://www.w3.org/2000/svg">
<path d="M21.0979 4.96428C20.9322 3.24827 23.0285 1.88197 24.6187 2.54775C31.9601 5.62132 50.675 11.0347 89.9774 9.9587C128.487 8.90436 145.671 4.6102 152.41 2.20116C153.985 1.63794 155.977 2.99933 155.839 4.66673L152.834 40.9781C152.773 41.7142 152.316 42.3452 151.611 42.5645C147.595 43.8128 131.897 47.6258 89.9774 47.6258C47.7618 47.6258 30.3461 43.7589 25.9008 42.5384C25.1548 42.3336 24.6428 41.6829 24.5685 40.9129L21.0979 4.96428Z" fill="white"/>
<path d="M32.3912 121.441C34.1904 118.397 37.4637 116.529 41 116.529L137 116.529C140.536 116.529 143.81 118.397 145.609 121.441L169.082 161.157C173.022 167.823 168.217 176.245 160.474 176.245H17.5264C9.78296 176.245 4.97766 167.823 8.91758 161.157L32.3912 121.441Z" fill="white"/>
<path d="M8.33539 164.171C8.33539 164.171 8.33539 171.422 13.1834 174.211C18.0313 177 25.5726 176.442 25.5726 176.442H47.1192H89.135H133.844H156.199C156.199 176.442 162.932 177.558 166.703 172.538C170.473 167.517 169.935 163.613 169.935 163.613C169.935 163.613 169.935 174.769 166.703 178.673C163.471 182.578 161.585 183.135 156.199 183.135C150.812 183.135 128.996 183.135 128.996 183.135H86.4415H47.6577C47.6577 183.135 33.1138 183.135 26.1113 182.578C19.1088 182.02 15.338 182.578 11.0287 178.673C6.7194 174.769 8.33539 164.171 8.33539 164.171Z" fill="url(#paint0_linear_138_106)"/>
<path d="M20.6709 181.987H28.7096V279.897C28.7096 281.001 27.8142 281.897 26.7096 281.897H22.6709C21.5663 281.897 20.6709 281.001 20.6709 279.897V181.987Z" fill="url(#paint1_linear_138_106)"/>
<path d="M148.142 183.135H156.181V281.045C156.181 282.15 155.285 283.045 154.181 283.045H150.142C149.038 283.045 148.142 282.15 148.142 281.045V183.135Z" fill="url(#paint2_linear_138_106)"/>
<path d="M110.245 45.329H118.284V116.529H110.245V45.329Z" fill="url(#paint3_linear_138_106)"/>
<path d="M60.8643 45.329H68.903V116.529H60.8643V45.329Z" fill="url(#paint4_linear_138_106)"/>
<path d="M35.6001 183.135H43.6388V236.258C43.6388 237.363 42.7434 238.258 41.6388 238.258H37.6001C36.4955 238.258 35.6001 237.363 35.6001 236.258V183.135Z" fill="url(#paint5_linear_138_106)"/>
<path d="M134.361 183.135H142.4V236.258C142.4 237.363 141.505 238.258 140.4 238.258H136.361C135.257 238.258 134.361 237.363 134.361 236.258V183.135Z" fill="url(#paint6_linear_138_106)"/>
<defs>
<linearGradient id="paint0_linear_138_106" x1="92.7116" y1="189.829" x2="92.7116" y2="141.859" gradientUnits="userSpaceOnUse">
<stop stop-color="#D9D9D9"/>
<stop offset="1" stop-color="#737373"/>
</linearGradient>
<linearGradient id="paint1_linear_138_106" x1="25.2644" y1="193.088" x2="25.2644" y2="151.767" gradientUnits="userSpaceOnUse">
<stop stop-color="#FAFAFA"/>
<stop offset="1" stop-color="#737373"/>
</linearGradient>
<linearGradient id="paint2_linear_138_106" x1="152.736" y1="194.237" x2="152.736" y2="152.916" gradientUnits="userSpaceOnUse">
<stop stop-color="#FAFAFA"/>
<stop offset="1" stop-color="#737373"/>
</linearGradient>
<linearGradient id="paint3_linear_138_106" x1="114.264" y1="56.1169" x2="114.926" y2="23.795" gradientUnits="userSpaceOnUse">
<stop stop-color="#FAFAFA"/>
<stop offset="1" stop-color="#737373"/>
</linearGradient>
<linearGradient id="paint4_linear_138_106" x1="64.8836" y1="56.1169" x2="65.5454" y2="23.795" gradientUnits="userSpaceOnUse">
<stop stop-color="#FAFAFA"/>
<stop offset="1" stop-color="#737373"/>
</linearGradient>
<linearGradient id="paint5_linear_138_106" x1="18.3743" y1="224.171" x2="37.753" y2="163.613" gradientUnits="userSpaceOnUse">
<stop stop-color="#D9D9D9"/>
<stop offset="1" stop-color="#737373"/>
</linearGradient>
<linearGradient id="paint6_linear_138_106" x1="117.136" y1="224.171" x2="136.514" y2="163.613" gradientUnits="userSpaceOnUse">
<stop stop-color="#D9D9D9"/>
<stop offset="1" stop-color="#737373"/>
</linearGradient>
</defs>
</svg>
