<svg width="341" height="241" viewBox="0 0 341 241" fill="none" xmlns="http://www.w3.org/2000/svg">
<path d="M68.0439 0.842651L272.974 0.842699L340.312 89.1403H0.706055L68.0439 0.842651Z" fill="white"/>
<path d="M0.706055 89.1402H340.312V94.7244C340.312 99.1427 336.73 102.724 332.312 102.724H8.70607C4.2878 102.724 0.706055 99.1427 0.706055 94.7244V89.1402Z" fill="url(#paint0_linear_137_75)"/>
<path d="M36.3652 102.724H48.2514V238.265C48.2514 239.369 47.356 240.265 46.2514 240.265H38.3652C37.2607 240.265 36.3652 239.369 36.3652 238.265V102.724Z" fill="url(#paint1_linear_137_75)"/>
<path d="M291.069 102.724H302.956V238.265C302.956 239.369 302.06 240.265 300.956 240.265H293.069C291.965 240.265 291.069 239.369 291.069 238.265V102.724Z" fill="url(#paint2_linear_137_75)"/>
<path d="M61.8354 102.724H73.7217V177.136C73.7217 178.24 72.8262 179.136 71.7217 179.136H63.8355C62.7309 179.136 61.8354 178.24 61.8354 177.136V102.724Z" fill="url(#paint3_linear_137_75)"/>
<path d="M265.599 102.724H277.485V177.136C277.485 178.24 276.589 179.136 275.485 179.136H267.599C266.494 179.136 265.599 178.24 265.599 177.136V102.724Z" fill="url(#paint4_linear_137_75)"/>
<defs>
<linearGradient id="paint0_linear_137_75" x1="177.301" y1="109.517" x2="177.301" y2="36.5013" gradientUnits="userSpaceOnUse">
<stop stop-color="#D9D9D9"/>
<stop offset="1" stop-color="#737373"/>
</linearGradient>
<linearGradient id="paint1_linear_137_75" x1="43.1574" y1="118.007" x2="43.1574" y2="61.1228" gradientUnits="userSpaceOnUse">
<stop stop-color="#FAFAFA"/>
<stop offset="1" stop-color="#737373"/>
</linearGradient>
<linearGradient id="paint2_linear_137_75" x1="297.861" y1="118.007" x2="297.861" y2="61.1228" gradientUnits="userSpaceOnUse">
<stop stop-color="#FAFAFA"/>
<stop offset="1" stop-color="#737373"/>
</linearGradient>
<linearGradient id="paint3_linear_137_75" x1="36.365" y1="159.608" x2="61.8355" y2="74.707" gradientUnits="userSpaceOnUse">
<stop stop-color="#D9D9D9"/>
<stop offset="1" stop-color="#737373"/>
</linearGradient>
<linearGradient id="paint4_linear_137_75" x1="240.128" y1="159.608" x2="265.599" y2="74.707" gradientUnits="userSpaceOnUse">
<stop stop-color="#D9D9D9"/>
<stop offset="1" stop-color="#737373"/>
</linearGradient>
</defs>
</svg>
