<svg width="155" height="246" viewBox="0 0 155 246" fill="none" xmlns="http://www.w3.org/2000/svg">
<path d="M18.427 4.42236C18.2613 2.70635 20.363 1.31952 21.9628 1.9619C28.7001 4.66711 45.0273 9.11236 78.3511 8.2C110.949 7.30751 125.999 3.74912 132.204 1.62422C133.786 1.08215 135.797 2.4574 135.659 4.1248L133.099 35.0568C133.038 35.7929 132.582 36.4227 131.875 36.6374C128.154 37.7679 114.367 41 78.3511 41C42.0461 41 26.8044 37.7157 22.7033 36.6106C21.9564 36.4093 21.4526 35.7615 21.3782 34.9915L18.427 4.42236Z" fill="white"/>
<path d="M27.8307 105.912C29.6299 102.868 32.9032 101 36.4395 101L118.561 101C122.097 101 125.37 102.868 127.169 105.912L146.082 137.912C150.022 144.578 145.217 153 137.474 153H17.5264C9.78296 153 4.97766 144.578 8.91758 137.912L27.8307 105.912Z" fill="white"/>
<path d="M7.25846 142.486C7.25846 142.486 7.25846 148.8 11.48 151.229C15.7016 153.657 22.2684 153.171 22.2684 153.171H41.0309H77.6177H116.55H136.016C136.016 153.171 141.879 154.143 145.162 149.771C148.446 145.4 147.977 142 147.977 142C147.977 142 147.977 151.714 145.162 155.114C142.348 158.514 140.706 159 136.016 159C131.325 159 112.328 159 112.328 159H75.2722H41.4998C41.4998 159 28.8352 159 22.7375 158.514C16.6398 158.029 13.3563 158.514 9.60377 155.114C5.85128 151.714 7.25846 142.486 7.25846 142.486Z" fill="url(#paint0_linear_138_106)"/>
<path d="M18 158H25V243C25 244.105 24.1046 245 23 245H20C18.8954 245 18 244.105 18 243V158Z" fill="url(#paint1_linear_138_106)"/>
<path d="M129 159H136V244C136 245.105 135.105 246 134 246H131C129.895 246 129 245.105 129 244V159Z" fill="url(#paint2_linear_138_106)"/>
<path d="M96 39H103V101H96V39Z" fill="url(#paint3_linear_138_106)"/>
<path d="M53 39H60V101H53V39Z" fill="url(#paint4_linear_138_106)"/>
<path d="M31 159H38V205C38 206.105 37.1046 207 36 207H33C31.8954 207 31 206.105 31 205V159Z" fill="url(#paint5_linear_138_106)"/>
<path d="M117 159H124V205C124 206.105 123.105 207 122 207H119C117.895 207 117 206.105 117 205V159Z" fill="url(#paint6_linear_138_106)"/>
<defs>
<linearGradient id="paint0_linear_138_106" x1="80.7321" y1="164.829" x2="80.7321" y2="123.057" gradientUnits="userSpaceOnUse">
<stop stop-color="#D9D9D9"/>
<stop offset="1" stop-color="#737373"/>
</linearGradient>
<linearGradient id="paint1_linear_138_106" x1="22" y1="167.667" x2="22" y2="131.685" gradientUnits="userSpaceOnUse">
<stop stop-color="#FAFAFA"/>
<stop offset="1" stop-color="#737373"/>
</linearGradient>
<linearGradient id="paint2_linear_138_106" x1="133" y1="168.667" x2="133" y2="132.685" gradientUnits="userSpaceOnUse">
<stop stop-color="#FAFAFA"/>
<stop offset="1" stop-color="#737373"/>
</linearGradient>
<linearGradient id="paint3_linear_138_106" x1="99.5" y1="48.3939" x2="100.076" y2="20.2485" gradientUnits="userSpaceOnUse">
<stop stop-color="#FAFAFA"/>
<stop offset="1" stop-color="#737373"/>
</linearGradient>
<linearGradient id="paint4_linear_138_106" x1="56.5" y1="48.3939" x2="57.0763" y2="20.2485" gradientUnits="userSpaceOnUse">
<stop stop-color="#FAFAFA"/>
<stop offset="1" stop-color="#737373"/>
</linearGradient>
<linearGradient id="paint5_linear_138_106" x1="16" y1="194.733" x2="32.8747" y2="142" gradientUnits="userSpaceOnUse">
<stop stop-color="#D9D9D9"/>
<stop offset="1" stop-color="#737373"/>
</linearGradient>
<linearGradient id="paint6_linear_138_106" x1="102" y1="194.733" x2="118.875" y2="142" gradientUnits="userSpaceOnUse">
<stop stop-color="#D9D9D9"/>
<stop offset="1" stop-color="#737373"/>
</linearGradient>
</defs>
</svg>
