<svg width="297" height="228" viewBox="0 0 297 228" fill="none" xmlns="http://www.w3.org/2000/svg">
<path opacity="0.2" d="M58.8899 0L238.11 4.17781e-05L297 77.2201H0L58.8899 0Z" fill="white"/>
<path d="M0 84.645H297V88.525C297 92.9433 293.418 96.525 289 96.525H8.00001C3.58173 96.525 0 92.9433 0 88.525V84.645Z" fill="url(#paint0_linear_142_282)"/>
<path opacity="0.2" d="M31.1851 106.92H41.5801V225.205C41.5801 226.31 40.6846 227.205 39.5801 227.205H33.1851C32.0805 227.205 31.1851 226.31 31.1851 225.205V106.92Z" fill="url(#paint1_linear_142_282)"/>
<path opacity="0.2" d="M253.935 106.92H264.33V225.205C264.33 226.31 263.435 227.205 262.33 227.205H255.935C254.83 227.205 253.935 226.31 253.935 225.205V106.92Z" fill="url(#paint2_linear_142_282)"/>
<path opacity="0.2" d="M53.46 100.98H63.855V165.805C63.855 166.91 62.9595 167.805 61.855 167.805H55.46C54.3554 167.805 53.46 166.91 53.46 165.805V100.98Z" fill="url(#paint3_linear_142_282)"/>
<path opacity="0.2" d="M231.66 100.98H242.055V165.805C242.055 166.91 241.16 167.805 240.055 167.805H233.66C232.556 167.805 231.66 166.91 231.66 165.805V100.98Z" fill="url(#paint4_linear_142_282)"/>
<defs>
<linearGradient id="paint0_linear_142_282" x1="154.44" y1="102.465" x2="154.44" y2="38.61" gradientUnits="userSpaceOnUse">
<stop stop-color="white"/>
<stop offset="0.533654" stop-color="#BCBCBC"/>
</linearGradient>
<linearGradient id="paint1_linear_142_282" x1="37.1251" y1="120.285" x2="37.1251" y2="70.5377" gradientUnits="userSpaceOnUse">
<stop stop-color="#FAFAFA"/>
<stop offset="1" stop-color="#737373"/>
</linearGradient>
<linearGradient id="paint2_linear_142_282" x1="259.875" y1="120.285" x2="259.875" y2="70.5377" gradientUnits="userSpaceOnUse">
<stop stop-color="#FAFAFA"/>
<stop offset="1" stop-color="#737373"/>
</linearGradient>
<linearGradient id="paint3_linear_142_282" x1="31.185" y1="150.727" x2="53.46" y2="76.4775" gradientUnits="userSpaceOnUse">
<stop stop-color="#D9D9D9"/>
<stop offset="1" stop-color="#737373"/>
</linearGradient>
<linearGradient id="paint4_linear_142_282" x1="209.385" y1="150.727" x2="231.66" y2="76.4775" gradientUnits="userSpaceOnUse">
<stop stop-color="#D9D9D9"/>
<stop offset="1" stop-color="#737373"/>
</linearGradient>
</defs>
</svg>
