<svg width="200" height="141" viewBox="0 0 200 141" fill="none" xmlns="http://www.w3.org/2000/svg">
<path opacity="0.2" d="M39.6565 0L160.344 2.81334e-05L200 52H0L39.6565 0Z" fill="white"/>
<path opacity="0.2" d="M0 52H200C200 56.4183 196.418 60 192 60H8C3.58173 60 0 56.4183 0 52Z" fill="url(#paint0_linear_142_240)"/>
<path d="M21 60H28V139C28 140.105 27.1046 141 26 141H23C21.8954 141 21 140.105 21 139V60Z" fill="url(#paint1_linear_142_240)"/>
<path d="M171 60H178V139C178 140.105 177.105 141 176 141H173C171.895 141 171 140.105 171 139V60Z" fill="url(#paint2_linear_142_240)"/>
<path d="M36 60H43V103C43 104.105 42.1046 105 41 105H38C36.8954 105 36 104.105 36 103V60Z" fill="url(#paint3_linear_142_240)"/>
<path d="M156 60H163V103C163 104.105 162.105 105 161 105H158C156.895 105 156 104.105 156 103V60Z" fill="url(#paint4_linear_142_240)"/>
<defs>
<linearGradient id="paint0_linear_142_240" x1="104" y1="64" x2="104" y2="21" gradientUnits="userSpaceOnUse">
<stop stop-color="#D9D9D9"/>
<stop offset="1" stop-color="#737373"/>
</linearGradient>
<linearGradient id="paint1_linear_142_240" x1="25" y1="69" x2="25" y2="35.5" gradientUnits="userSpaceOnUse">
<stop stop-color="#FAFAFA"/>
<stop offset="1" stop-color="#737373"/>
</linearGradient>
<linearGradient id="paint2_linear_142_240" x1="175" y1="69" x2="175" y2="35.5" gradientUnits="userSpaceOnUse">
<stop stop-color="#FAFAFA"/>
<stop offset="1" stop-color="#737373"/>
</linearGradient>
<linearGradient id="paint3_linear_142_240" x1="21" y1="93.5" x2="36" y2="43.5" gradientUnits="userSpaceOnUse">
<stop stop-color="#D9D9D9"/>
<stop offset="1" stop-color="#737373"/>
</linearGradient>
<linearGradient id="paint4_linear_142_240" x1="141" y1="93.5" x2="156" y2="43.5" gradientUnits="userSpaceOnUse">
<stop stop-color="#D9D9D9"/>
<stop offset="1" stop-color="#737373"/>
</linearGradient>
</defs>
</svg>
