<svg width="155" height="240" viewBox="0 0 155 240" fill="none" xmlns="http://www.w3.org/2000/svg">
<path d="M51 37.6654L104 37.6654L155 153H0L51 37.6654Z" fill="white"/>
<ellipse cx="77.5" cy="152.5" rx="77.5" ry="13.5" fill="#CDCDCD"/>
<path d="M78 145C82.9706 145 87 149.029 87 154V158.276C90.0568 160.845 92 164.695 92 169C92 176.732 85.732 183 78 183C70.268 183 64 176.732 64 169C64 164.695 65.9432 160.845 69 158.276V154C69 149.029 73.0294 145 78 145Z" fill="white"/>
<rect x="77" y="139" width="2" height="6" fill="#949494"/>
<path d="M76.5 38C76.5 35 87.9 33.8 89.5 25C91.1 16.2 77.8333 5.33333 71 1" stroke="#878686" stroke-width="2"/>
<g filter="url(#filter0_d_138_245)">
<rect width="1" height="26" rx="0.5" transform="matrix(-0.604851 -0.796339 -0.796339 0.604851 58.3096 183.796)" fill="white"/>
</g>
<g filter="url(#filter1_d_138_245)">
<rect width="1" height="26" rx="0.5" transform="matrix(-0.999865 0.0164065 0.0164065 0.999865 78.9998 194)" fill="white"/>
</g>
<g filter="url(#filter2_d_138_245)">
<rect width="1" height="26" rx="0.5" transform="matrix(-0.463697 0.885994 0.885994 0.463697 98.4636 183)" fill="white"/>
</g>
<defs>
<filter id="filter0_d_138_245" x="17.2004" y="163.201" width="60.9084" height="56.1213" filterUnits="userSpaceOnUse" color-interpolation-filters="sRGB">
<feFlood flood-opacity="0" result="BackgroundImageFix"/>
<feColorMatrix in="SourceAlpha" type="matrix" values="0 0 0 0 0 0 0 0 0 0 0 0 0 0 0 0 0 0 127 0" result="hardAlpha"/>
<feMorphology radius="5" operator="dilate" in="SourceAlpha" result="effect1_dropShadow_138_245"/>
<feOffset/>
<feGaussianBlur stdDeviation="7.5"/>
<feComposite in2="hardAlpha" operator="out"/>
<feColorMatrix type="matrix" values="0 0 0 0 1 0 0 0 0 1 0 0 0 0 1 0 0 0 0.55 0"/>
<feBlend mode="normal" in2="BackgroundImageFix" result="effect1_dropShadow_138_245"/>
<feBlend mode="normal" in="SourceGraphic" in2="effect1_dropShadow_138_245" result="shape"/>
</filter>
<filter id="filter1_d_138_245" x="58.0081" y="174.008" width="41.4102" height="65.9966" filterUnits="userSpaceOnUse" color-interpolation-filters="sRGB">
<feFlood flood-opacity="0" result="BackgroundImageFix"/>
<feColorMatrix in="SourceAlpha" type="matrix" values="0 0 0 0 0 0 0 0 0 0 0 0 0 0 0 0 0 0 127 0" result="hardAlpha"/>
<feMorphology radius="5" operator="dilate" in="SourceAlpha" result="effect1_dropShadow_138_245"/>
<feOffset/>
<feGaussianBlur stdDeviation="7.5"/>
<feComposite in2="hardAlpha" operator="out"/>
<feColorMatrix type="matrix" values="0 0 0 0 1 0 0 0 0 1 0 0 0 0 1 0 0 0 0.55 0"/>
<feBlend mode="normal" in2="BackgroundImageFix" result="effect1_dropShadow_138_245"/>
<feBlend mode="normal" in="SourceGraphic" in2="effect1_dropShadow_138_245" result="shape"/>
</filter>
<filter id="filter2_d_138_245" x="78.1746" y="163.175" width="63.1501" height="52.5927" filterUnits="userSpaceOnUse" color-interpolation-filters="sRGB">
<feFlood flood-opacity="0" result="BackgroundImageFix"/>
<feColorMatrix in="SourceAlpha" type="matrix" values="0 0 0 0 0 0 0 0 0 0 0 0 0 0 0 0 0 0 127 0" result="hardAlpha"/>
<feMorphology radius="5" operator="dilate" in="SourceAlpha" result="effect1_dropShadow_138_245"/>
<feOffset/>
<feGaussianBlur stdDeviation="7.5"/>
<feComposite in2="hardAlpha" operator="out"/>
<feColorMatrix type="matrix" values="0 0 0 0 1 0 0 0 0 1 0 0 0 0 1 0 0 0 0.55 0"/>
<feBlend mode="normal" in2="BackgroundImageFix" result="effect1_dropShadow_138_245"/>
<feBlend mode="normal" in="SourceGraphic" in2="effect1_dropShadow_138_245" result="shape"/>
</filter>
</defs>
</svg>
