<svg width="355" height="184" viewBox="0 0 355 184" fill="none" xmlns="http://www.w3.org/2000/svg">
<path d="M21.3803 52.579C28.7386 26.8192 52.2826 9.05884 79.0727 9.05885L274.585 9.05892C302.965 9.05893 327.464 28.9435 333.302 56.7169L344.732 111.098C352.57 148.386 324.118 183.44 286.015 183.44H63.5388C23.6776 183.44 -5.10202 145.288 5.84641 106.96L21.3803 52.579Z" fill="url(#paint0_linear_142_237)"/>
<path d="M21.3803 43.5202C28.7386 17.7604 52.2826 6.01998e-06 79.0727 1.47514e-05L274.585 7.84726e-05C302.965 8.77223e-05 327.464 19.8846 333.302 47.6581L344.732 102.039C352.57 139.327 324.118 174.381 286.015 174.381H63.5388C23.6776 174.381 -5.10202 136.229 5.84641 97.9012L21.3803 43.5202Z" fill="white"/>
<defs>
<linearGradient id="paint0_linear_142_237" x1="171.969" y1="193.631" x2="171.969" y2="86.0582" gradientUnits="userSpaceOnUse">
<stop stop-color="#EEEEEE"/>
<stop offset="0.519231" stop-color="#707070"/>
</linearGradient>
</defs>
</svg>
