<svg width="155" height="257" viewBox="0 0 155 257" fill="none" xmlns="http://www.w3.org/2000/svg">
<path d="M18.427 4.42236C18.2613 2.70635 20.363 1.31952 21.9628 1.9619C28.7001 4.66711 45.0273 9.11236 78.3511 8.2C110.949 7.30751 125.999 3.74912 132.204 1.62422C133.786 1.08215 135.797 2.4574 135.659 4.1248L133.099 35.0568C133.038 35.7929 132.582 36.4227 131.875 36.6374C128.154 37.7679 114.367 41 78.3511 41C42.0461 41 26.8044 37.7157 22.7033 36.6106C21.9564 36.4093 21.4526 35.7615 21.3782 34.9915L18.427 4.42236Z" fill="white" fill-opacity="0.2"/>
<path d="M27.8307 105.912C29.6299 102.868 32.9032 101 36.4395 101L118.561 101C122.097 101 125.37 102.868 127.169 105.912L146.082 137.912C150.022 144.578 145.217 153 137.474 153H17.5264C9.78296 153 4.97766 144.578 8.91758 137.912L27.8307 105.912Z" fill="white"/>
<path d="M7.25846 153.486C7.25846 153.486 7.25846 159.8 11.48 162.229C15.7016 164.657 22.2684 164.171 22.2684 164.171H41.0309H77.6177H116.55H136.016C136.016 164.171 141.879 165.143 145.162 160.771C148.446 156.4 147.977 153 147.977 153C147.977 153 147.977 162.714 145.162 166.114C142.348 169.514 140.706 170 136.016 170C131.325 170 112.328 170 112.328 170H75.2722H41.4998C41.4998 170 28.8352 170 22.7375 169.514C16.6398 169.029 13.3563 169.514 9.60377 166.114C5.85128 162.714 7.25846 153.486 7.25846 153.486Z" fill="url(#paint0_linear_140_86)"/>
<path d="M18 169H25V254C25 255.105 24.1046 256 23 256H20C18.8954 256 18 255.105 18 254V169Z" fill="url(#paint1_linear_140_86)" fill-opacity="0.2"/>
<path d="M129 170H136V255C136 256.105 135.105 257 134 257H131C129.895 257 129 256.105 129 255V170Z" fill="url(#paint2_linear_140_86)" fill-opacity="0.2"/>
<path d="M96 41H103V101H96V41Z" fill="url(#paint3_linear_140_86)" fill-opacity="0.2"/>
<path d="M53 41H60V101H53V41Z" fill="url(#paint4_linear_140_86)" fill-opacity="0.2"/>
<path d="M31 170H38V216C38 217.105 37.1046 218 36 218H33C31.8954 218 31 217.105 31 216V170Z" fill="url(#paint5_linear_140_86)" fill-opacity="0.2"/>
<path d="M117 170H124V216C124 217.105 123.105 218 122 218H119C117.895 218 117 217.105 117 216V170Z" fill="url(#paint6_linear_140_86)" fill-opacity="0.2"/>
<defs>
<linearGradient id="paint0_linear_140_86" x1="80.7321" y1="175.829" x2="80.7321" y2="134.057" gradientUnits="userSpaceOnUse">
<stop stop-color="#D9D9D9"/>
<stop offset="1" stop-color="#737373"/>
</linearGradient>
<linearGradient id="paint1_linear_140_86" x1="22" y1="178.667" x2="22" y2="142.685" gradientUnits="userSpaceOnUse">
<stop stop-color="#FAFAFA"/>
<stop offset="1" stop-color="#737373"/>
</linearGradient>
<linearGradient id="paint2_linear_140_86" x1="133" y1="179.667" x2="133" y2="143.685" gradientUnits="userSpaceOnUse">
<stop stop-color="#FAFAFA"/>
<stop offset="1" stop-color="#737373"/>
</linearGradient>
<linearGradient id="paint3_linear_140_86" x1="99.5" y1="50.0909" x2="100.04" y2="22.8526" gradientUnits="userSpaceOnUse">
<stop stop-color="#FAFAFA"/>
<stop offset="1" stop-color="#737373"/>
</linearGradient>
<linearGradient id="paint4_linear_140_86" x1="56.5" y1="50.0909" x2="57.0397" y2="22.8526" gradientUnits="userSpaceOnUse">
<stop stop-color="#FAFAFA"/>
<stop offset="1" stop-color="#737373"/>
</linearGradient>
<linearGradient id="paint5_linear_140_86" x1="16" y1="205.733" x2="32.8747" y2="153" gradientUnits="userSpaceOnUse">
<stop stop-color="#D9D9D9"/>
<stop offset="1" stop-color="#737373"/>
</linearGradient>
<linearGradient id="paint6_linear_140_86" x1="102" y1="205.733" x2="118.875" y2="153" gradientUnits="userSpaceOnUse">
<stop stop-color="#D9D9D9"/>
<stop offset="1" stop-color="#737373"/>
</linearGradient>
</defs>
</svg>
