<svg width="338" height="221" viewBox="0 0 338 221" fill="none" xmlns="http://www.w3.org/2000/svg">
<path d="M1.2793 110.841C1.2793 110.841 63.9611 87.3339 71.6364 86.1038C79.3118 84.8738 86.9871 86.1039 86.9871 86.1039L13.4319 111.387L1.2793 110.841Z" fill="white"/>
<rect x="25.585" y="106.195" width="8.95455" height="38.7468" fill="url(#paint0_linear_139_27)"/>
<path d="M13.4316 110.5L86.3472 84.6688L88.2661 88.974L50.529 103.325L13.4316 116.958V110.5Z" fill="#CACACA"/>
<path d="M307.014 153.552H314.689L311.811 180.818H308.933L307.014 153.552Z" fill="url(#paint1_linear_139_27)"/>
<path d="M291.663 152.296L321.085 119.29V143.686L291.663 184.585C291.663 184.585 292.942 183.33 293.581 181.715C294.221 180.101 294.221 177.769 294.221 177.769V170.952L291.663 152.296Z" fill="url(#paint2_linear_139_27)"/>
<rect y="152.117" width="147.11" height="34.4416" rx="5" fill="url(#paint3_linear_139_27)"/>
<rect x="147.11" y="151.579" width="147.11" height="34.4416" rx="5" fill="url(#paint4_linear_139_27)"/>
<path d="M79.1042 119.11H200.838C200.838 119.11 178.98 132.764 175.893 134.896C172.806 137.029 166.188 141.374 163.101 143.507C160.013 145.639 154.035 149.26 150.948 150.682C147.861 152.104 149.029 153.552 146.471 154.27C143.912 154.987 135.951 153.941 132.748 153.23C129.545 152.519 129.893 153.941 127.191 153.23C124.49 152.519 119.937 153.23 115.46 153.941C110.984 154.651 103.42 153.941 95.0849 153.941C86.7495 153.941 66.0655 152.519 66.0655 152.519C66.0655 152.519 39.8245 153.23 30.2543 154.651C20.6841 156.073 12.8118 152.519 12.8118 152.519H3.93614H0L79.1042 119.11Z" fill="white"/>
<path d="M203.396 117.675H321.084C321.084 117.675 317.668 125.494 314.252 127.627C310.836 129.759 308.103 136.867 304.687 139C301.271 141.132 299.905 146.108 296.489 147.53C293.072 148.951 291.023 152.505 291.023 152.505C291.023 152.505 291.151 152.505 287.607 151.794C284.062 151.084 284.447 152.505 281.458 151.794C278.469 151.084 273.43 151.794 268.477 152.505C263.523 153.216 255.154 152.505 245.93 152.505C236.707 152.505 212.351 152.834 212.351 152.834C212.351 152.834 184.782 151.794 174.192 153.216C163.602 154.638 157.344 153.216 157.344 153.216L152.867 152.834H149.669L203.396 117.675Z" fill="white"/>
<rect x="84.4287" y="1.43506" width="116.409" height="117.675" fill="#DDDDDD"/>
<rect x="202.117" y="1.43506" width="118.968" height="117.675" fill="#DDDDDD"/>
<path d="M321.084 0.896901C321.084 0.896901 328.903 -2.69073 330.039 4.48459C331.175 11.6599 325.562 76.9553 325.562 103.504C325.562 130.053 321.084 142.968 321.084 142.968V0.896901Z" fill="url(#paint5_linear_139_27)"/>
<path d="M266.409 186.558H275.673L266.409 218.847L262.241 221L266.409 186.558Z" fill="url(#paint6_linear_139_27)"/>
<path d="M38.7076 186.558H47.9709L38.7076 218.847L34.5391 221L38.7076 186.558Z" fill="url(#paint7_linear_139_27)"/>
<path d="M1.12684 110.904C2.91222 110.368 11.7544 110.364 12.9446 110.9C14.1349 111.437 14.73 116.267 12.9446 117.072C11.1592 117.876 2.31719 117.876 1.12684 117.072C-0.0635101 116.267 -0.658539 111.44 1.12684 110.904Z" fill="url(#paint8_linear_139_27)"/>
<path d="M301.889 104.503L307.006 102.35L307.645 155.365L302.529 161.905L301.889 104.503Z" fill="url(#paint9_linear_139_27)"/>
<path d="M286.545 108.008L337.075 83.6121C337.075 83.6121 336.435 85.7647 335.156 87.1997C333.877 88.6348 323.483 94.9132 323.483 94.9132C323.483 94.9132 315.967 98.6802 309.571 101.55C303.175 104.421 286.545 113.031 286.545 113.031V108.008Z" fill="#CACACA"/>
<path d="M276.952 108.008C276.952 108.008 324.922 83.4364 325.562 83.2813C326.202 83.1261 331.319 80.0242 336.435 83.2813C341.552 86.5384 286.546 108.008 286.546 108.008L276.952 108.008Z" fill="white"/>
<path d="M277.132 107.695C278.43 107.158 284.861 107.155 285.726 107.691C286.592 108.227 287.025 113.058 285.726 113.863C284.428 114.667 277.997 114.667 277.132 113.863C276.266 113.058 275.833 108.231 277.132 107.695Z" fill="url(#paint10_linear_139_27)"/>
<defs>
<linearGradient id="paint0_linear_139_27" x1="-0.639065" y1="131.308" x2="58.2179" y2="129.598" gradientUnits="userSpaceOnUse">
<stop stop-color="white"/>
<stop offset="1" stop-color="#818181"/>
</linearGradient>
<linearGradient id="paint1_linear_139_27" x1="298.699" y1="153.552" x2="322.014" y2="204.819" gradientUnits="userSpaceOnUse">
<stop stop-color="#737373"/>
<stop offset="1" stop-color="#D9D9D9"/>
</linearGradient>
<linearGradient id="paint2_linear_139_27" x1="282.708" y1="93.4586" x2="327.735" y2="157.679" gradientUnits="userSpaceOnUse">
<stop stop-color="#737373"/>
<stop offset="1" stop-color="#D9D9D9"/>
</linearGradient>
<linearGradient id="paint3_linear_139_27" x1="6.39611" y1="-11.4805" x2="75.7926" y2="198.001" gradientUnits="userSpaceOnUse">
<stop stop-color="#737373"/>
<stop offset="1" stop-color="#D9D9D9"/>
</linearGradient>
<linearGradient id="paint4_linear_139_27" x1="153.506" y1="-12.0187" x2="222.903" y2="197.463" gradientUnits="userSpaceOnUse">
<stop stop-color="#737373"/>
<stop offset="1" stop-color="#D9D9D9"/>
</linearGradient>
<linearGradient id="paint5_linear_139_27" x1="273.361" y1="0.896915" x2="263.722" y2="173.126" gradientUnits="userSpaceOnUse">
<stop stop-color="#737373"/>
<stop offset="1" stop-color="#D9D9D9"/>
</linearGradient>
<linearGradient id="paint6_linear_139_27" x1="263.763" y1="167.764" x2="281.701" y2="201.775" gradientUnits="userSpaceOnUse">
<stop stop-color="#737373"/>
<stop offset="1" stop-color="#D9D9D9"/>
</linearGradient>
<linearGradient id="paint7_linear_139_27" x1="36.0609" y1="167.764" x2="53.999" y2="201.775" gradientUnits="userSpaceOnUse">
<stop stop-color="#737373"/>
<stop offset="1" stop-color="#D9D9D9"/>
</linearGradient>
<linearGradient id="paint8_linear_139_27" x1="51.1175" y1="132.089" x2="31.1414" y2="93.1163" gradientUnits="userSpaceOnUse">
<stop stop-color="#8C8B8B"/>
<stop offset="1" stop-color="white"/>
</linearGradient>
<linearGradient id="paint9_linear_139_27" x1="284.627" y1="118.771" x2="332.6" y2="118.201" gradientUnits="userSpaceOnUse">
<stop stop-color="#D9D9D9"/>
<stop offset="1" stop-color="#737373"/>
</linearGradient>
<linearGradient id="paint10_linear_139_27" x1="299.338" y1="120.206" x2="284.13" y2="99.9118" gradientUnits="userSpaceOnUse">
<stop stop-color="#8C8B8B"/>
<stop offset="1" stop-color="white"/>
</linearGradient>
</defs>
</svg>
