<svg width="338" height="209" viewBox="0 0 338 209" fill="none" xmlns="http://www.w3.org/2000/svg">
<path d="M66.8403 0L270.256 4.74184e-05C270.256 4.74184e-05 278.973 6.74205 286.966 21.9113C294.96 37.0806 295.539 32.8671 303.677 43.8226C311.814 54.7782 315.475 58.1493 320.387 65.7339C325.298 73.3185 337.097 87.6452 337.097 87.6452H0C0 87.6452 10.4024 75.8468 20.2258 67.4193C30.0492 58.9919 32.8669 51.4072 40.4516 37.0806C48.0363 22.754 49.2875 27.8105 57.3064 16.8548C65.3254 5.89917 66.8403 0 66.8403 0Z" fill="white"/>
<path d="M0 83.4317C0 83.4317 40.4516 87.6452 84.2742 83.4315C128.097 79.2178 128.097 80.0607 178.661 83.4317C229.226 86.8026 233.439 83.4315 251.98 83.4315C270.52 83.4315 262.935 85.9598 294.117 83.4317C325.298 80.9035 337.097 87.6453 337.097 87.6453V128.524C337.097 132.943 333.515 136.524 329.097 136.524H8C3.58172 136.524 0 132.943 0 128.524V83.4317Z" fill="url(#paint0_linear_139_70)"/>
<path d="M52.6712 136.524H72.897L76.9877 206.884C77.0545 208.032 76.1413 209 74.9911 209H50.5772C49.427 209 48.5138 208.032 48.5805 206.884L52.6712 136.524Z" fill="url(#paint1_linear_139_70)"/>
<path d="M271.785 136.524H292.01L296.101 206.884C296.168 208.032 295.255 209 294.104 209H269.69C268.54 209 267.627 208.032 267.694 206.884L271.785 136.524Z" fill="url(#paint2_linear_139_70)"/>
<path d="M97.384 136.524H117.26L121.122 172.777C121.247 173.949 120.335 174.975 119.156 174.988L94.9837 175.264C93.775 175.278 92.8304 174.225 92.9753 173.025L97.384 136.524Z" fill="url(#paint3_linear_139_70)"/>
<path d="M227.166 136.524H247.042L250.904 172.777C251.029 173.949 250.117 174.975 248.938 174.988L224.766 175.264C223.557 175.278 222.613 174.225 222.758 173.025L227.166 136.524Z" fill="url(#paint4_linear_139_70)"/>
<defs>
<linearGradient id="paint0_linear_139_70" x1="175.29" y1="160.964" x2="175.29" y2="-101.761" gradientUnits="userSpaceOnUse">
<stop stop-color="#D9D9D9"/>
<stop offset="1" stop-color="#737373"/>
</linearGradient>
<linearGradient id="paint1_linear_139_70" x1="64.2288" y1="144.577" x2="64.2288" y2="114.602" gradientUnits="userSpaceOnUse">
<stop stop-color="#FAFAFA"/>
<stop offset="1" stop-color="#737373"/>
</linearGradient>
<linearGradient id="paint2_linear_139_70" x1="283.342" y1="144.577" x2="283.342" y2="114.602" gradientUnits="userSpaceOnUse">
<stop stop-color="#FAFAFA"/>
<stop offset="1" stop-color="#737373"/>
</linearGradient>
<linearGradient id="paint3_linear_139_70" x1="54.7921" y1="165.077" x2="58.9415" y2="118.999" gradientUnits="userSpaceOnUse">
<stop stop-color="#D9D9D9"/>
<stop offset="1" stop-color="#737373"/>
</linearGradient>
<linearGradient id="paint4_linear_139_70" x1="184.574" y1="165.077" x2="188.724" y2="118.999" gradientUnits="userSpaceOnUse">
<stop stop-color="#D9D9D9"/>
<stop offset="1" stop-color="#737373"/>
</linearGradient>
</defs>
</svg>
