<svg width="298" height="140" viewBox="0 0 298 140" fill="none" xmlns="http://www.w3.org/2000/svg">
<path d="M66.8015 140C63.2868 140 60.869 136.469 62.1397 133.192L77.2621 94.1924C78.0083 92.2681 79.8601 91 81.924 91H87.2531C90.4563 91 92.8333 93.9698 92.1317 97.0952L83.3766 136.095C82.8642 138.378 80.8375 140 78.498 140H66.8015Z" fill="#D9D9D9"/>
<path d="M237.698 140C241.213 140 243.631 136.469 242.36 133.192L227.238 94.1924C226.492 92.2681 224.64 91 222.576 91H217.247C214.044 91 211.667 93.9698 212.368 97.0952L221.123 136.095C221.636 138.378 223.663 140 226.002 140H237.698Z" fill="#D9D9D9"/>
<g opacity="0.2">
<path d="M29.472 25.013C35.6601 14.0871 47.2463 7.33374 59.8029 7.33374L245.709 7.33377C259.78 7.33378 272.471 15.7938 277.884 28.782C287.453 51.7428 270.584 77.0494 245.709 77.0494H59.8029C33.0973 77.0494 16.311 48.2503 29.472 25.013Z" fill="url(#paint0_linear_142_279)"/>
<path d="M29.472 17.6792C35.6601 6.75336 47.2463 1.27578e-06 59.8029 3.3398e-06L245.709 3.38985e-05C259.78 3.62114e-05 272.471 8.46009 277.884 21.4483C287.453 44.4091 270.584 69.7157 245.709 69.7157H59.8029C33.0973 69.7157 16.311 40.9166 29.472 17.6792Z" fill="white"/>
</g>
<g filter="url(#filter0_d_142_279)">
<path d="M74 51.5L84 33V104.5L74 127.5V51.5Z" fill="#D9D9D9"/>
</g>
<g filter="url(#filter1_d_142_279)">
<path d="M230.5 51.5L220.5 33V104.5L230.5 127.5V51.5Z" fill="#D9D9D9"/>
</g>
<defs>
<filter id="filter0_d_142_279" x="71" y="33" width="18" height="103.5" filterUnits="userSpaceOnUse" color-interpolation-filters="sRGB">
<feFlood flood-opacity="0" result="BackgroundImageFix"/>
<feColorMatrix in="SourceAlpha" type="matrix" values="0 0 0 0 0 0 0 0 0 0 0 0 0 0 0 0 0 0 127 0" result="hardAlpha"/>
<feOffset dx="1" dy="5"/>
<feGaussianBlur stdDeviation="2"/>
<feComposite in2="hardAlpha" operator="out"/>
<feColorMatrix type="matrix" values="0 0 0 0 0 0 0 0 0 0 0 0 0 0 0 0 0 0 0.25 0"/>
<feBlend mode="normal" in2="BackgroundImageFix" result="effect1_dropShadow_142_279"/>
<feBlend mode="normal" in="SourceGraphic" in2="effect1_dropShadow_142_279" result="shape"/>
</filter>
<filter id="filter1_d_142_279" x="217.5" y="33" width="18" height="103.5" filterUnits="userSpaceOnUse" color-interpolation-filters="sRGB">
<feFlood flood-opacity="0" result="BackgroundImageFix"/>
<feColorMatrix in="SourceAlpha" type="matrix" values="0 0 0 0 0 0 0 0 0 0 0 0 0 0 0 0 0 0 127 0" result="hardAlpha"/>
<feOffset dx="1" dy="5"/>
<feGaussianBlur stdDeviation="2"/>
<feComposite in2="hardAlpha" operator="out"/>
<feColorMatrix type="matrix" values="0 0 0 0 0 0 0 0 0 0 0 0 0 0 0 0 0 0 0.25 0"/>
<feBlend mode="normal" in2="BackgroundImageFix" result="effect1_dropShadow_142_279"/>
<feBlend mode="normal" in="SourceGraphic" in2="effect1_dropShadow_142_279" result="shape"/>
</filter>
<linearGradient id="paint0_linear_142_279" x1="149" y1="81.1237" x2="149" y2="38.1173" gradientUnits="userSpaceOnUse">
<stop stop-color="#EEEEEE"/>
<stop offset="0.519231" stop-color="#707070"/>
</linearGradient>
</defs>
</svg>
